<svg xmlns="http://www.w3.org/2000/svg" viewBox="0 0 138.322 138.188"><path d="M136.67 81.63v50.043c0 8.34-20.666 4.99-25.896 5.036-35.376.32-70.755.193-106.13.597-4.484.05-3.74-4.697-3.697-7.647.125-8.313.212-16.628.273-24.944.157-21.162.085-42.32.085-63.477v-36c0-5.147 8.066-3.725 11.32-3.725h99.694c4.164 0 24.353-2.984 24.353 4.05v76.06" fill="#fff"/><path d="M4.784.646C-1.76.646.442 14.126.442 17.966V51.77c0 22.805.037 45.61-.242 68.414-.054 4.51-.122 9.02-.193 13.528-.08 5.178 5.56 4.458 8.97 4.423a6778.84 6778.84 0 0 1 52.008-.367c20.792-.063 41.584-.082 62.376-.324 6.084-.07 14.184 1.502 14.184-6.552V14.472c0-3.44 1.462-11.734-2.656-13.48-3.452-1.468-9.152-.343-12.723-.343H58.177C40.384.647 22.587.647 4.79.647m-3.046 133.19c0-42.06.438-84.123.438-126.18 0-4.56 1.884-5.277 6.048-5.277h90.822c3.653 0 36.75-2.81 36.75 2.696v127.37c0 5.947-20.766 3.347-24.272 3.382-23.665.22-47.332.154-70.998.302-3.67.02-38.793 3.11-38.793-2.29" fill="#A8A8A8"/><path d="M127.39 98.685c-.592 9.807-21.065 3.646-26.656 6.22-2.87 1.32-3.15 3.682-3.745 6.4-.565 2.564-1.638 5.022-2.95 7.288a33.68 33.68 0 0 1-3.678 5.127c-2.847 3.287-4.023 3.626-8.243 3.738-18.26.48-36.524.742-54.79.92-4.284.043-16.22 2.584-16.184-4.03l.564-108.27c.022-4.21 3.15-4.138 6.417-4.138h102.25c5.02 0 5.865 2.125 5.93 6.945.37 26.595.72 53.196 1.09 79.797" fill="#F4F4F4"/><path d="M137.61 30.657c0 5.078-9.77 3.47-12.788 3.47H6.942c-7.196 0-6.357-5.304-6.357-11.396C.585 18.77-2.182 0 4.338 0h129.66c6.7 0 3.61 25.875 3.61 30.657" fill="#D82A2A"/><path d="M4.634 28.56C4.528 28.473 7.02 15 7.167 13.545c.517-5.03 1.395-6.962 6.61-7.16 16.17-.62 32.357-1.26 48.542-1.384 20.74-.163 41.52.38 62.238 1.357 4.368.205 5.938 1.414 6.277 5.957.26 3.46-.586 14.48 2.076 16.96.01.008 1.306-8.395 1.36-9.18.306-4.394.518-8.792.69-13.19.214-5.406-5.565-4.3-9.195-4.3H14.575c-2.87 0-11.378-1.423-11.378 3.336-.853 2.8.17 7.37.28 10.254.09 2.224-.753 10.763 1.145 12.367" fill="#EF5656"/><path d="M136.67 33.624H.9c-1.005 0-.705-2.96 1.48-2.997 36.956-.617 73.914-.792 110.87-.333 6.416.08 12.83.173 19.248.286 2.75.05 5.22-.802 4.16 3.044" fill="#B20D0D"/><linearGradient id="a" y2="463.82" gradientUnits="userSpaceOnUse" y1="463.82" gradientTransform="matrix(181.33 0 0 -181.33 45114 84197)" x2="-247.01" x1="-248.78"><stop stop-color="#F4F4F4" offset="0"/><stop stop-color="#6E6E6E" offset="1"/></linearGradient><path d="M37.693 62.636H23.376c-2.447 0-1.287 3.93-1.287 5.984v50.822c0 1.676 9.474.733 11.144.733.476 0 4.458.24 4.458-.196v-9.38c0-4.664.085-3.92-5.008-4.046-.504-.012-9.706-.09-9.706-.545 0-1.096 14.714.422 14.714-1.215v-13.64V62.64" fill="url(#a)"/><linearGradient id="b" y2="463.86" gradientUnits="userSpaceOnUse" y1="463.86" gradientTransform="matrix(181.33 0 0 -181.33 45159 84189)" x2="-246.86" x1="-248.6"><stop stop-color="#F4F4F4" offset="0"/><stop stop-color="#6E6E6E" offset="1"/></linearGradient><path d="M115.75 48.75h-14.898c1.156 17.457.93 35.296.112 52.76 5.013-.127 10.053-1.118 14.544-3.41-.175-5.438-.24-10.878-.27-16.318-.05-10.985-.2-22.06.52-33.03" fill="url(#b)"/><linearGradient id="c" y2="463.7" gradientUnits="userSpaceOnUse" y1="463.7" gradientTransform="matrix(181.33 0 0 -181.33 45159 84189)" x2="-246.85" x1="-248.6"><stop stop-color="#fff" offset="0"/><stop stop-color="#737373" offset="1"/></linearGradient><path d="M106.65 105.01a34.225 34.225 0 0 0-3.122.122h8.65c-1.84-.04-3.69-.12-5.53-.12" fill="url(#c)"/><path d="M69.808 92.123H53.423c.438 0-1.18-14.017-.147-14.98 1.95-1.815 13.46 0 16.385 0 .298.002.148 13.414.148 14.98" fill="#EF5656"/><g fill="#A8A8A8"><path d="M23.867 92.627c0 1.795.156 29.998-.888 29.998-1.34 0-1.34-59.996 0-59.996 1.043.004.887 28.206.887 30.002M38.618 92.627c0 1.795.156 29.998-.888 29.998-1.338 0-1.338-59.996 0-59.996 1.044.004.888 28.206.888 30.002M53.66 83.517c0 2.214.155 37.373-.89 37.373-1.34 0-1.34-74.747 0-74.747 1.045 0 .89 35.16.89 37.374M70.725 83.517c0 2.214.156 37.373-.888 37.373-1.34 0-1.34-74.747 0-74.747 1.044 0 .888 35.16.888 37.374M101.39 76.146c0 1.796.146 29.99-.89 29.99-1.347 0-1.347-59.993 0-59.993 1.03-.005.89 28.204.89 29.998M85.764 83.517c0 2.214.156 37.373-.888 37.373-1.34 0-1.34-74.747 0-74.747 1.044 0 .888 35.16.888 37.374M117 76.146c0 1.796.147 29.99-.89 29.99-1.346 0-1.346-59.993 0-59.993 1.04-.005.89 28.204.89 29.998"/><path d="M69.754 61.74c2.75 0 46.772-.157 46.772.89 0 1.34-93.547 1.34-93.547 0-.005-1.047 44.02-.89 46.77-.89M69.754 75.624c2.75 0 46.772-.157 46.772.89 0 1.34-93.547 1.34-93.547 0-.005-1.047 44.02-.89 46.77-.89M69.754 91.533c2.75 0 46.772-.158 46.772.888 0 1.342-93.547 1.34-93.547 0-.005-1.045 44.02-.887 46.77-.887M84.515 47.28c1.983 0 33.313-.157 33.313.887 0 1.34-66.628 1.34-66.628 0-.002-1.043 31.33-.888 33.313-.888M69.757 105.12c2.75 0 46.764-.147 46.764.893 0 1.35-93.54 1.35-93.54 0 0-1.04 44.028-.89 46.778-.89M54.445 119.88c1.878 0 31.462-.157 31.462.887 0 1.34-62.93 1.34-62.93 0 .002-1.05 29.59-.89 31.468-.89"/></g><path d="M84.456 134.42c12.902 1.284 25.94-5.427 34.564-14.604 4.806-5.104 7.468-11.81 11.233-17.63 3.54-5.47 2.462 4.833 2.457 6.958-.014 6.11 2.796 21.35-4.888 23.437-13.69 3.71-29.416 2.42-43.364 1.83M121.75 103.94c-1.747.38-3.556.47-5.34.432-.15 1.75 4.26.02 5.34-.43m9.06-28.23c-.382 2.894-1.246 5.735-2.42 8.403-2.24 5.088.164 10.342-1.153 15.583 4.95-6.498 4.87-16.278 3.57-23.987" fill="#DBDBDB"/><path d="M127.22 86.5c-1.667 3.08-3.865 5.876-6.536 8.15-2.29 1.948-3.9 1.756-4.02 4.946-.06 1.593-.125 3.188-.254 4.78 3.857.083 6.958-.564 9.716-3.395 2.87-2.953 1.15-10.62 1.09-14.49M100.03 101.53c-2.86 0-4.99 1.12-6.345 3.72 1.644.017 5.158.68 6.59-.108 0-.98-.19-2.5-.24-3.61" fill="#D2D2D2"/><path d="M96.578 112.86c-1.09 3.577-3 6.892-5.33 9.8-2.884 3.603-2.946 8.68-6.792 11.765 9.14-2.64 12.345-13.03 12.122-21.56m6.952-7.72c-.558-.01-2.77-.278-2.833.21.95.07 1.89 0 2.83-.21m12.26 0h-3.607c1.2.03 2.4.03 3.61 0" fill="#DBDBDB"/><path d="M98.4 106.72c-5.76.084-5.937.547-6.89 6.18-.663 3.91-1.062 7.868-1.965 11.736 2.825-3.05 5.176-6.604 6.61-10.518.995-2.72.367-4.88 2.244-7.4" fill="#D2D2D2"/><linearGradient id="d" y2="463.7" gradientUnits="userSpaceOnUse" y1="463.7" gradientTransform="matrix(181.33 0 0 -181.33 45159 84189)" x2="-246.86" x1="-248.6"><stop stop-color="#DBDBDB" offset="0"/><stop stop-color="#636363" offset="1"/></linearGradient><path d="M107.73 103.75c-.907 0-6.854.007-7.012 1.39 5.007.128 10.05 0 15.064 0v-.78c-2.7-.11-5.33-.61-8.05-.61" fill="url(#d)"/><linearGradient id="e" y2="463.71" gradientUnits="userSpaceOnUse" y1="463.71" gradientTransform="matrix(181.33 0 0 -181.33 45159 84189)" x2="-246.85" x1="-248.6"><stop stop-color="#D2D2D2" offset="0"/><stop stop-color="#5E5E5E" offset="1"/></linearGradient><path d="M100.18 104.2c.013.284.014.777.087.937l-.09-.94m15.33-6.1c-2.376 1.212-4.92 2.07-7.527 2.62-4.47.94-6.752-.73-7.237 4.18 4.74-2.175 10.092-.74 15.04-.544-.09-2.09-.2-4.17-.27-6.26" fill="url(#e)"/><g fill="#909090"><path d="M100.97 101.51c-.314.008-.63.012-.942.017.06 1.27.13 2.543.268 3.812 1.02.02.64-3.22.67-3.83M116.74 97.434c-2.18 1.26-1.13 5.245-.85 7.697 1.11-.04.82-6.683.85-7.695M93.68 105.25c-.226.513-.45 1.024-.678 1.537 3.722-.038 5.49-.772 8.853-1.418-2.73-.05-5.454-.09-8.18-.12"/></g><path d="M92.562 134.12a156 156 0 0 1-3.28.085c1.1.18 2.194.15 3.28-.08m39.328-39.097c-.922 0-4.6 10.45-5.088 11.39-4.5 8.646-10.984 16.568-18.905 22.3 8.118-4.696 13.596-11.318 18.182-19.328 1.62-2.83 3.028-6.117 5.183-8.597.52-.58 1.96-5.757.63-5.757" fill="#D0D0D0"/><path d="M132.1 100.19c-3.054 0-9.985 15.934-12.038 18.438-7.37 9-17.637 14.432-28.987 15.686 6.483.374 13.432 1.458 19.42-1.32 5.933-2.756 12.438-6.722 15.27-12.91 1.57-3.428.855-10.874 4.878-12.76 1.86-.88 2.51-7.14 1.46-7.14" fill="#BFBFBF"/><path d="M99.575 107.16c0 3.575 21.302 3.2 20.692-1.476-.26-1.96-20.695-1.25-20.695 1.48" fill="#fff"/></svg>