<svg xmlns="http://www.w3.org/2000/svg" viewBox="0 0 656.81 591.75" version="1"><path d="M521.188 508.393c-104.328-44.93-284.576-32.534-379.603 29.44-34.605-42.866-22.728-146.16 17.042-158.04C131.253 274.947 186 50.804 53.267 43.572.073 100.387-32.965-25.634 51.718 4.84c175.067 16.855 114.026 234.775 154.94 364.11 146.68-32.024 392.522 38.215 342.42 77.47-145.644-39.255-325.377-86.25-390.45 48.032 72.304-72.304 339.838-59.393 362.56 13.94z"/><path d="M510.342 375.146c116.21-97.612 378.306-382.09-314.53-243.256 509.755-27.894 443.132 15.493 314.53 243.256z"/><path d="M597.11 220.205c-113.625-37.702-250.488-52.164-374.96-27.89 117.23-8.263 253.063 20.66 362.557 57.328l12.394-29.438zM559.924 291.475l-17.044 32.54c-76.955-49.582-183.35-71.274-292.837-65.073 81.085-41.836 183.863-26.342 309.88 32.533z"/><path d="M590.912 141.187c-14.978-6.716-29.956-13.433-44.933-20.143-65.08 78.5-99.164 160.105-120.857 244.806 41.315-79.535 87.28-151.324 165.786-224.663zM497.947 113.298c-12.91-.52-25.82-1.035-38.738-1.55-58.88 71.27-83.666 144.093-83.666 218.468 22.207-72.31 56.812-144.614 122.405-216.918zM389.49 114.843c-12.396.52-24.793 1.035-37.19 1.55-23.758 61.463-41.315 119.82-38.735 184.384 8.267-65.08 38.22-122.406 75.926-185.934zM486.824 481.885c9.32.132 18.018 2.79 24.99 8.2 20.287 15.75 18.394 48.897-4.227 74.003-22.62 25.106-57.448 32.715-77.733 16.966s-18.395-48.914 4.23-74.02c14.84-16.477 34.943-25.406 52.74-25.15zm-15.958 31.45c-7.79-.12-16.593 4.102-23.09 11.876-9.91 11.844-10.753 27.478-1.868 34.907s24.142 3.85 34.052-7.993c9.903-11.843 10.73-27.494 1.846-34.922-3.05-2.553-6.86-3.807-10.94-3.868zM210.25 481.885c9.324.132 18.023 2.79 24.996 8.2 20.286 15.75 18.39 48.897-4.23 74.003-22.623 25.106-57.452 32.715-77.737 16.966s-18.39-48.914 4.228-74.02c14.846-16.477 34.944-25.406 52.742-25.15zm-15.952 31.45c-7.795-.12-16.592 4.102-23.095 11.876-9.904 11.844-10.748 27.478-1.868 34.907 8.885 7.428 24.147 3.85 34.05-7.993s10.733-27.494 1.853-34.922c-3.057-2.553-6.858-3.807-10.94-3.868z"/></svg>