<svg xmlns:rdf="http://www.w3.org/1999/02/22-rdf-syntax-ns#" xmlns="http://www.w3.org/2000/svg" height="100%" viewBox="0 0 90 85" width="100%" version="1.1" xmlns:cc="http://creativecommons.org/ns#" xmlns:dc="http://purl.org/dc/elements/1.1/">
<g transform="matrix(5 0 0 4.9987 -15 -5160.5)" fill="#333">
<g fill="#333" transform="translate(-789 604.36)">
<path style="color:black" transform="translate(789,424)" d="m7.3125 4c-3.541 0.0684-4.3125 0.625-4.3125 5v3c0 5 1 5 6 5h6c5 0 6 0 6-5v-3c0-5-1-5-6-5h-6c-0.625 0-1.1816-0.0098-1.6875 0zm-1.3125 3h12v1h-12v-1zm0 2h12v1h-12v-1zm0 2h8v1h-8v-1z"/>
<path d="m796 440v5l5-5z"/>
</g>
</g>
</svg>
