<svg xmlns:rdf="http://www.w3.org/1999/02/22-rdf-syntax-ns#" xmlns="http://www.w3.org/2000/svg" height="100%" width="100%" version="1.1" xmlns:cc="http://creativecommons.org/ns#" xmlns:xlink="http://www.w3.org/1999/xlink" viewBox="0 0 54 52" xmlns:dc="http://purl.org/dc/elements/1.1/">
<defs>
<linearGradient id="linearGradient2919" x1="1091.2" gradientUnits="userSpaceOnUse" x2="1093.2" gradientTransform="matrix(.42280 0 0 .42280 -191.22 -76.725)" y1="527.82" y2="412.11">
<stop stop-opacity=".26804" offset="0"/>
<stop stop-opacity="0" offset="1"/>
</linearGradient>
<linearGradient id="linearGradient2916" x1="794.61" gradientUnits="userSpaceOnUse" x2="1408.1" gradientTransform="matrix(.42280 0 0 .42280 -191.22 -76.725)" y1="440.95" y2="440.95">
<stop stop-opacity=".47423" offset="0"/>
<stop stop-opacity="0" offset=".5"/>
<stop stop-opacity=".48454" offset="1"/>
</linearGradient>
<radialGradient id="radialGradient2913" gradientUnits="userSpaceOnUse" cy="429.2" cx="1100.9" gradientTransform="matrix(.42507 .013778 -.0082718 .24098 -190.01 9.7082)" r="337.3">
<stop stop-color="#FFF" stop-opacity="0" offset="0"/>
<stop stop-color="#FFF" stop-opacity="0" offset=".90947"/>
<stop stop-color="#FFF" stop-opacity=".28866" offset=".94444"/>
<stop stop-color="#FFF" stop-opacity="0" offset="1"/>
</radialGradient>
<linearGradient id="linearGradient7120" x1="1084" gradientUnits="userSpaceOnUse" x2="1088.2" gradientTransform="matrix(.42280 0 0 .42280 -191.22 -78.467)" y1="527.52" y2="715.07">
<stop stop-opacity=".48454" offset="0"/>
<stop stop-opacity="0" offset="1"/>
</linearGradient>
<radialGradient id="radialGradient7118" gradientUnits="userSpaceOnUse" cy="306.34" cx="1083.6" gradientTransform="matrix(1 0 0 .27803 0 221.17)" r="27.562">
<stop stop-color="#FFF" stop-opacity=".26804" offset="0"/>
<stop stop-color="#FFF" stop-opacity="0" offset="1"/>
</radialGradient>
<radialGradient id="radialGradient7116" gradientUnits="userSpaceOnUse" cy="392.92" cx="1084.2" gradientTransform="matrix(.42280 -.0000058931 6.5099e-7 .046705 -191.11 70.952)" r="23.97">
<stop stop-color="#FFF" stop-opacity=".43299" offset="0"/>
<stop stop-color="#FFF" stop-opacity="0" offset="1"/>
</radialGradient>
<radialGradient id="radialGradient7114" gradientUnits="userSpaceOnUse" cy="676.96" cx="1126.2" gradientTransform="matrix(.42280 0 0 .036054 -194.8 182.85)" r="50.952">
<stop stop-color="#FFF" stop-opacity=".17526" offset="0"/>
<stop stop-color="#FFF" stop-opacity="0" offset="1"/>
</radialGradient>
<radialGradient id="radialGradient7112" gradientUnits="userSpaceOnUse" cy="730.19" cx="1117.5" gradientTransform="matrix(.30286 .0000015086 -.0000019503 .39153 -57.176 -57.214)" r="51.864">
<stop stop-color="#FFF" stop-opacity=".12371" offset="0"/>
<stop stop-color="#FFF" stop-opacity="0" offset="1"/>
</radialGradient>
<radialGradient id="radialGradient7110" gradientUnits="userSpaceOnUse" cy="1121.2" cx="1101.6" gradientTransform="matrix(.35174 -.0016163 .0070034 1.5241 -120.79 -1268.6)" r="71.438">
<stop stop-color="#FFF" stop-opacity=".18557" offset="0"/>
<stop stop-color="#FFF" stop-opacity="0" offset="1"/>
</radialGradient>
<linearGradient id="linearGradient7108" x1="1082.6" gradientUnits="userSpaceOnUse" x2="1091.9" gradientTransform="matrix(.42280 0 0 .42280 -191.22 -76.725)" y1="391.53" y2="659.46">
<stop stop-color="#674631" offset="0"/>
<stop stop-color="#9f6c4d" offset="1"/>
</linearGradient>
<linearGradient id="linearGradient7106" x1="764.77" gradientUnits="userSpaceOnUse" x2="1439.2" gradientTransform="matrix(.42280 0 0 .42280 -191.83 -76.124)" y1="754.17" y2="754.17">
<stop stop-color="#00212f" offset="0"/>
<stop stop-color="#3b5b82" offset=".5"/>
<stop stop-color="#00212f" offset="1"/>
</linearGradient>
<radialGradient id="radialGradient7104" gradientUnits="userSpaceOnUse" cy="868.76" cx="709" gradientTransform="matrix(.33207 .090361 -.022380 .082242 -107.76 154.2)" r="11.849">
<stop stop-color="#FFF" stop-opacity=".49485" offset="0"/>
<stop stop-color="#FFF" stop-opacity="0" offset="1"/>
</radialGradient>
<radialGradient id="radialGradient7102" gradientUnits="userSpaceOnUse" cy="857.9" cx="690.23" gradientTransform="matrix(.33111 .27508 -.18554 .22334 31.252 -95.473)" r="4.1674">
<stop stop-color="#FFF" stop-opacity=".58763" offset="0"/>
<stop stop-color="#FFF" stop-opacity="0" offset="1"/>
</radialGradient>
<radialGradient id="radialGradient7100" gradientUnits="userSpaceOnUse" cy="589.94" cx="730.01" gradientTransform="matrix(.34592 .099830 -.015596 .054041 -125.88 67.439)" r="23.209">
<stop stop-color="#FFF" stop-opacity=".51546" offset="0"/>
<stop stop-color="#FFF" stop-opacity="0" offset="1"/>
</radialGradient>
<linearGradient id="linearGradient7098" x1="746.28" gradientUnits="userSpaceOnUse" x2="738.61" gradientTransform="matrix(.42280 0 0 .42280 -191.22 -76.725)" y1="537.08" y2="558.4">
<stop stop-color="#FFF" stop-opacity=".32990" offset="0"/>
<stop stop-color="#FFF" stop-opacity="0" offset="1"/>
</linearGradient>
<linearGradient id="linearGradient7096" x1="646.95" gradientUnits="userSpaceOnUse" x2="607.33" gradientTransform="matrix(.42280 0 0 .42280 -191.22 -76.725)" y1="625.24" y2="708.88">
<stop stop-color="#FFF" stop-opacity="0" offset="0"/>
<stop stop-color="#FFF" stop-opacity=".20619" offset=".5"/>
<stop stop-color="#FFF" stop-opacity="0" offset="1"/>
</linearGradient>
<linearGradient id="linearGradient7094" x1="703.72" gradientUnits="userSpaceOnUse" x2="703.72" gradientTransform="matrix(.42280 0 0 .42280 -191.22 -76.725)" y1="791.31" y2="854.51">
<stop stop-color="#FFF" stop-opacity=".39175" offset="0"/>
<stop stop-color="#FFF" stop-opacity="0" offset="1"/>
</linearGradient>
<linearGradient id="linearGradient7092" x1="790.02" xlink:href="#linearGradient3274" gradientUnits="userSpaceOnUse" x2="780.4" gradientTransform="matrix(.42280 0 0 .42280 -191.22 -76.725)" y1="749.41" y2="721.93"/>
<linearGradient id="linearGradient7090" x1="743.21" xlink:href="#linearGradient3274" gradientUnits="userSpaceOnUse" x2="809.25" gradientTransform="matrix(.42280 0 0 .42280 -191.22 -76.725)" y1="823.53" y2="757.58"/>
<linearGradient id="linearGradient7088" x1="752.92" xlink:href="#linearGradient3274" gradientUnits="userSpaceOnUse" x2="840.85" gradientTransform="matrix(.42280 0 0 .42280 -190.65 -75.716)" y1="587.28" y2="569.42"/>
<linearGradient id="linearGradient7086" x1="564.15" gradientUnits="userSpaceOnUse" x2="615.6" gradientTransform="matrix(.42280 0 0 .42280 -191.22 -76.725)" y1="626.9" y2="665.37">
<stop stop-opacity=".35052" offset="0"/>
<stop stop-color="#325d80" stop-opacity="0" offset="1"/>
</linearGradient>
<linearGradient id="linearGradient7084" x1="721.21" gradientUnits="userSpaceOnUse" x2="601.68" gradientTransform="matrix(.42280 0 0 .42280 -191.22 -76.725)" y1="776.86" y2="662.11">
<stop stop-opacity="0" offset="0"/>
<stop stop-opacity=".28866" offset=".89"/>
<stop stop-opacity="0" offset="1"/>
</linearGradient>
<radialGradient id="radialGradient7082" gradientUnits="userSpaceOnUse" cy="711.81" cx="693.84" gradientTransform="matrix(.42280 0 0 .67718 -191.22 -257.79)" r="109.92">
<stop stop-color="#325d80" offset="0"/>
<stop stop-color="#284d6a" offset="1"/>
</radialGradient>
<linearGradient id="linearGradient3274">
<stop stop-opacity=".11340" offset="0"/>
<stop offset="1"/>
</linearGradient>
</defs>
<g transform="matrix(.14760 0 0 .13139 -4.9222 -3.0397)">
<g transform="translate(-22.136 -20.936)">
<path fill="url(#radialGradient7082)" d="m142.22 161.99s-18.589-12.199-34.273-12.199-34.775 9.0116-42.406 26.722c-11.27 26.157-10.201 39.007-9.8754 45.891 0.48269 10.217-2.0724 61.672 54.394 75.887 9.0242 2.2669 27.884 1.2674 41.245-2.7989l-2.6942-42.3s-10.456-3.4854-15.103 17.427-29.626 13.942-48.215-19.751c-18.589-33.692-4.0663-62.738-4.0663-62.738s9.8754-13.361 24.979-11.037c15.103 2.3236 31.369 13.942 33.111 33.112 0 0-0.5809 5.2281 6.3899 5.2281l-3.4854-53.443z"/>
<path fill="url(#linearGradient7084)" d="m86.457 182.33s-14.523 9.8754-9.2945 46.472c5.2281 36.597 35.435 49.958 54.605 42.406l-9.8754 12.78c-27.301 6.38-54.603-23.82-55.765-59.26-1.162-35.43 20.332-42.4 20.332-42.4z"/>
<path fill="url(#linearGradient7086)" d="m67.233 270.23s-15.473-17.154-10.402-69.311c12.269-42.644 16.52-36.497 33.112-47.053 21.727-10.874 46.347 39.66 46.347 39.66s-24.272-34.432-46.928-26.88c-22.655 7.5518-28.464 44.149-28.464 44.149-0.04008 24.891 6.3354 59.435 6.3354 59.435z"/>
<path fill="url(#linearGradient7088)" d="m143.4 183.37c-6.9708-3.4854-15.679-28.862-15.679-28.862s6.3339 2.388 14.482 7.4711l1.1964 21.391z"/>
<path fill="url(#linearGradient7090)" d="m138.21 258.64c2.2012-3.2142 2.2347 19.768-11.126 23.254 6.9999-6.1007 6.4262-11.214 6.4262-11.214s2.3839-8.6581 4.6999-12.04z"/>
<path fill="url(#linearGradient7092)" d="m142.8 254.2c0.92097 10.528 7.3408 41.034 7.3408 41.034l-2.5879-42.195s-4.8716-0.19582-4.7529 1.1615z"/>
<path fill="url(#linearGradient7094)" d="m86.115 253.13s9.7133 16.02 21.308 24.154c5.7553 3.9298 12.163 5.7627 12.163 5.7627l-18.6-0.22c-2.6162-3.7266-8.4678-10.778-14.864-29.688z"/>
<path d="m81.809 181.16s-20.913 14.523-14.523 58.09" stroke="url(#linearGradient7096)" stroke-width="1.0147" fill="none"/>
<path fill="url(#linearGradient7098)" d="m142.42 162.16s-23.259-15.724-41.437-11.787-6.3899 2.9045 5.809 4.6472 35.822 12.78 35.822 12.78l-0.19381-5.6398z"/>
<g stroke-width="3.1287" fill="none">
<path d="m109.11 169.55s15.103 3.4854 17.427 6.9708" stroke="url(#radialGradient7100)"/>
<path d="m97.75 284.19 5.4346 3.3117" stroke="url(#radialGradient7102)"/>
<path d="m112.44 290.6s-4.3306-0.16984-10.02-2.8022" stroke="url(#radialGradient7104)"/>
</g>
<path fill="url(#linearGradient7106)" d="m142.19 163.76c4.0663 66.803 8.1327 133.61 12.199 200.41 0 0 18.926 87.67 124.31 75.517 43.794-4.1706 49.531-5.2458 71.27-21.465 28.845-17.55 30.39-53.47 30.39-53.47 7.939-63.513 15.878-127.03 23.817-190.54 0 0 15.627-27.067 11.618-51.12-4.0663-24.398-34.273-47.053-34.273-47.053s-44.852-35.61-121.99-30.207c-81.808 5.7303-126.57 30.426-127.8 79.003 0 0-0.58091 16.265 10.456 38.921 0.001 0.001 0.002 0.003 0.003 0.004z"/>
<path fill="url(#linearGradient7108)" d="m280.44 202.1c-99.334-0.58088-127.22-48.215-127.22-48.215 9.5446-59.833 101.63-64.864 112.7-65.061 5.6054-0.09883 33.963 1.0983 62.163 11.107 27.823 9.8745 56.244 23.745 61.222 48.726 1.4092 10.521-1.7852 18.367-5.0586 23.128-11.782 17.136-68.469 29.169-103.8 30.315z"/>
<path fill="url(#radialGradient7110)" d="m243.36 437.25s17.533-142.8 39.153-141.53c21.62 1.2718 22.256 140.49 22.256 140.49s-29.463 7.4016-61.409 1.0428z"/>
<path fill="url(#radialGradient7112)" d="m265.89 227.74s17.417 2.2808 32.036 0c14.618-2.2809-5.7021 47.691-5.7021 47.691s-15.551 2.9029-17.417 3.0066c-1.8661 0.10367-15.448-45.099-15.448-45.099l6.5316-5.5985z"/>
<path d="m261.37 206.98s26.291 1.1793 39.956 0.0694" stroke="url(#radialGradient7114)" stroke-width="3.1287" fill="none"/>
<path d="m258.71 89.584s6.7934-1.0451 17.14-0.31354" stroke="url(#radialGradient7116)" stroke-width="3.1287" fill="none"/>
<path fill="url(#radialGradient7118)" transform="matrix(.42280 0 0 .42280 -191.22 -76.725)" d="m1111.1 306.34c0 4.2321-12.34 7.6629-27.562 7.6629s-27.562-3.4308-27.562-7.6629 12.34-7.6629 27.562-7.6629 27.562 3.4308 27.562 7.6629z"/>
<path fill="url(#linearGradient7120)" d="m283.38 209.63s-97.49 10.122-148.69-65.38 3.4721 11.506 7.4901 19.449c0.2267 3.1837 0.34258 3.7729 0.72844 10.496 0.76628 13.351 2.2032 37.759 2.2032 37.759s1.7559 10.456 12.212 4.6472c10.456-5.809 17.427-8.7136 33.112-6.3899 15.684 2.3236 56.929 11.618 91.202 11.037 34.273-0.58091 73.194-12.78 94.106-12.199 20.913 0.5809 18.008 9.8754 18.008 9.8754s4.6472 12.199 5.809-1.7427 4.6472-43.568 4.6472-43.568 2.9046-3.4854 8.1327-20.913-26.722 59.833-128.96 56.929z"/>
<path fill="url(#linearGradient2919)" d="m267.12 124.24s51.7 2.3236 84.812 17.427c33.111 15.103 12.78-10.456 12.78-10.456s-29.626-33.692-93.525-33.692-86.555 27.883-86.555 27.883-20.913 22.074 17.427 8.7136c38.34-13.361 65.061-9.8754 65.061-9.8754z"/>
<path fill="url(#linearGradient2916)" d="m153.26 154.44c-0.37134 0.51575 1.059-56.933 114.44-65.658 26.379-2.0299 148.7 25.427 116.63 83.323 0 0 53.338-42.438-11.489-90.859 0 0-41.825-27.883-105.14-27.302-63.318 0.5809-102.52 31.19-107.47 36.597-4.6472 5.0829-31.369 28.464-6.9708 63.899z"/>
<rect rx="1.339" ry="1.339" height="192.86" width="293.94" y="44.071" x="127.41" fill="url(#radialGradient2913)"/>
</g>
</g>
</svg>
