<svg xmlns="http://www.w3.org/2000/svg" xmlns:xlink="http://www.w3.org/1999/xlink" viewBox="0 0 54 52"><defs><linearGradient id="v" x1="1091.2" gradientUnits="userSpaceOnUse" x2="1093.2" gradientTransform="translate(-191.22 -76.725) scale(.4228)" y1="527.82" y2="412.11"><stop stop-opacity=".268" offset="0"/><stop stop-opacity="0" offset="1"/></linearGradient><linearGradient id="w" x1="794.61" gradientUnits="userSpaceOnUse" x2="1408.1" gradientTransform="translate(-191.22 -76.725) scale(.4228)" y1="440.95" y2="440.95"><stop stop-opacity=".474" offset="0"/><stop stop-opacity="0" offset=".5"/><stop stop-opacity=".485" offset="1"/></linearGradient><radialGradient id="x" gradientUnits="userSpaceOnUse" cy="429.2" cx="1100.9" gradientTransform="matrix(.42507 .01378 -.00827 .24098 -190.01 9.708)" r="337.3"><stop stop-color="#FFF" stop-opacity="0" offset="0"/><stop stop-color="#FFF" stop-opacity="0" offset=".909"/><stop stop-color="#FFF" stop-opacity=".289" offset=".944"/><stop stop-color="#FFF" stop-opacity="0" offset="1"/></radialGradient><linearGradient id="u" x1="1084" gradientUnits="userSpaceOnUse" x2="1088.2" gradientTransform="translate(-191.22 -78.467) scale(.4228)" y1="527.52" y2="715.07"><stop stop-opacity=".485" offset="0"/><stop stop-opacity="0" offset="1"/></linearGradient><radialGradient id="t" gradientUnits="userSpaceOnUse" cy="306.34" cx="1083.6" gradientTransform="matrix(1 0 0 .27803 0 221.17)" r="27.562"><stop stop-color="#FFF" stop-opacity=".268" offset="0"/><stop stop-color="#FFF" stop-opacity="0" offset="1"/></radialGradient><radialGradient id="s" gradientUnits="userSpaceOnUse" cy="392.92" cx="1084.2" gradientTransform="matrix(.4228 0 0 .0467 -191.11 70.952)" r="23.97"><stop stop-color="#FFF" stop-opacity=".433" offset="0"/><stop stop-color="#FFF" stop-opacity="0" offset="1"/></radialGradient><radialGradient id="r" gradientUnits="userSpaceOnUse" cy="676.96" cx="1126.2" gradientTransform="matrix(.4228 0 0 .03605 -194.8 182.85)" r="50.952"><stop stop-color="#FFF" stop-opacity=".175" offset="0"/><stop stop-color="#FFF" stop-opacity="0" offset="1"/></radialGradient><radialGradient id="q" gradientUnits="userSpaceOnUse" cy="730.19" cx="1117.5" gradientTransform="matrix(.30286 0 0 .39153 -57.176 -57.214)" r="51.864"><stop stop-color="#FFF" stop-opacity=".124" offset="0"/><stop stop-color="#FFF" stop-opacity="0" offset="1"/></radialGradient><radialGradient id="p" gradientUnits="userSpaceOnUse" cy="1121.2" cx="1101.6" gradientTransform="matrix(.35174 -.00162 .007 1.5241 -120.79 -1268.6)" r="71.438"><stop stop-color="#FFF" stop-opacity=".186" offset="0"/><stop stop-color="#FFF" stop-opacity="0" offset="1"/></radialGradient><linearGradient id="o" x1="1082.6" gradientUnits="userSpaceOnUse" x2="1091.9" gradientTransform="translate(-191.22 -76.725) scale(.4228)" y1="391.53" y2="659.46"><stop stop-color="#674631" offset="0"/><stop stop-color="#9f6c4d" offset="1"/></linearGradient><linearGradient id="n" x1="764.77" gradientUnits="userSpaceOnUse" x2="1439.2" gradientTransform="translate(-191.83 -76.124) scale(.4228)" y1="754.17" y2="754.17"><stop stop-color="#00212f" offset="0"/><stop stop-color="#3b5b82" offset=".5"/><stop stop-color="#00212f" offset="1"/></linearGradient><radialGradient id="m" gradientUnits="userSpaceOnUse" cy="868.76" cx="709" gradientTransform="matrix(.33207 .09036 -.02238 .08224 -107.76 154.2)" r="11.849"><stop stop-color="#FFF" stop-opacity=".495" offset="0"/><stop stop-color="#FFF" stop-opacity="0" offset="1"/></radialGradient><radialGradient id="l" gradientUnits="userSpaceOnUse" cy="857.9" cx="690.23" gradientTransform="matrix(.3311 .27508 -.18554 .22334 31.252 -95.473)" r="4.167"><stop stop-color="#FFF" stop-opacity=".588" offset="0"/><stop stop-color="#FFF" stop-opacity="0" offset="1"/></radialGradient><radialGradient id="k" gradientUnits="userSpaceOnUse" cy="589.94" cx="730.01" gradientTransform="matrix(.34592 .09983 -.0156 .05404 -125.88 67.44)" r="23.209"><stop stop-color="#FFF" stop-opacity=".515" offset="0"/><stop stop-color="#FFF" stop-opacity="0" offset="1"/></radialGradient><linearGradient id="j" x1="746.28" gradientUnits="userSpaceOnUse" x2="738.61" gradientTransform="translate(-191.22 -76.725) scale(.4228)" y1="537.08" y2="558.4"><stop stop-color="#FFF" stop-opacity=".33" offset="0"/><stop stop-color="#FFF" stop-opacity="0" offset="1"/></linearGradient><linearGradient id="i" x1="646.95" gradientUnits="userSpaceOnUse" x2="607.33" gradientTransform="translate(-191.22 -76.725) scale(.4228)" y1="625.24" y2="708.88"><stop stop-color="#FFF" stop-opacity="0" offset="0"/><stop stop-color="#FFF" stop-opacity=".206" offset=".5"/><stop stop-color="#FFF" stop-opacity="0" offset="1"/></linearGradient><linearGradient id="h" x1="703.72" gradientUnits="userSpaceOnUse" x2="703.72" gradientTransform="translate(-191.22 -76.725) scale(.4228)" y1="791.31" y2="854.51"><stop stop-color="#FFF" stop-opacity=".392" offset="0"/><stop stop-color="#FFF" stop-opacity="0" offset="1"/></linearGradient><linearGradient id="g" x1="790.02" xlink:href="#a" gradientUnits="userSpaceOnUse" x2="780.4" gradientTransform="translate(-191.22 -76.725) scale(.4228)" y1="749.41" y2="721.93"/><linearGradient id="f" x1="743.21" xlink:href="#a" gradientUnits="userSpaceOnUse" x2="809.25" gradientTransform="translate(-191.22 -76.725) scale(.4228)" y1="823.53" y2="757.58"/><linearGradient id="e" x1="752.92" xlink:href="#a" gradientUnits="userSpaceOnUse" x2="840.85" gradientTransform="translate(-190.65 -75.716) scale(.4228)" y1="587.28" y2="569.42"/><linearGradient id="d" x1="564.15" gradientUnits="userSpaceOnUse" x2="615.6" gradientTransform="translate(-191.22 -76.725) scale(.4228)" y1="626.9" y2="665.37"><stop stop-opacity=".351" offset="0"/><stop stop-color="#325d80" stop-opacity="0" offset="1"/></linearGradient><linearGradient id="c" x1="721.21" gradientUnits="userSpaceOnUse" x2="601.68" gradientTransform="translate(-191.22 -76.725) scale(.4228)" y1="776.86" y2="662.11"><stop stop-opacity="0" offset="0"/><stop stop-opacity=".289" offset=".89"/><stop stop-opacity="0" offset="1"/></linearGradient><radialGradient id="b" gradientUnits="userSpaceOnUse" cy="711.81" cx="693.84" gradientTransform="matrix(.4228 0 0 .67718 -191.22 -257.79)" r="109.92"><stop stop-color="#325d80" offset="0"/><stop stop-color="#284d6a" offset="1"/></radialGradient><linearGradient id="a"><stop stop-opacity=".113" offset="0"/><stop offset="1"/></linearGradient></defs><g transform="matrix(.1476 0 0 .1314 -8.19 -5.79)"><path fill="url(#b)" d="M142.22 161.99s-18.59-12.2-34.273-12.2-34.775 9.013-42.406 26.723c-11.27 26.157-10.2 39.007-9.874 45.89.482 10.218-2.073 61.673 54.394 75.888 9.024 2.268 27.884 1.268 41.245-2.798l-2.695-42.3s-10.456-3.485-15.103 17.427-29.626 13.94-48.215-19.752c-18.59-33.692-4.066-62.738-4.066-62.738s9.875-13.36 24.98-11.037c15.102 2.324 31.368 13.942 33.11 33.112 0 0-.58 5.228 6.39 5.228l-3.485-53.443z"/><path fill="url(#c)" d="M86.457 182.33s-14.523 9.875-9.294 46.472c5.228 36.597 35.434 49.958 54.604 42.406l-9.875 12.78c-27.3 6.38-54.603-23.82-55.765-59.26-1.162-35.43 20.332-42.4 20.332-42.4z"/><path fill="url(#d)" d="M67.233 270.23S51.76 253.076 56.83 200.92c12.27-42.645 16.52-36.498 33.113-47.054 21.727-10.874 46.347 39.66 46.347 39.66s-24.272-34.432-46.928-26.88c-22.655 7.552-28.464 44.15-28.464 44.15-.04 24.89 6.335 59.434 6.335 59.434z"/><path fill="url(#e)" d="M143.4 183.37c-6.97-3.485-15.68-28.862-15.68-28.862s6.335 2.388 14.483 7.47l1.196 21.392z"/><path fill="url(#f)" d="M138.21 258.64c2.2-3.214 2.235 19.768-11.126 23.254 7-6.1 6.426-11.214 6.426-11.214s2.384-8.658 4.7-12.04z"/><path fill="url(#g)" d="M142.8 254.2c.92 10.528 7.34 41.034 7.34 41.034l-2.587-42.195s-4.872-.197-4.753 1.16z"/><path fill="url(#h)" d="M86.115 253.13s9.713 16.02 21.308 24.154c5.755 3.93 12.163 5.763 12.163 5.763l-18.6-.22c-2.616-3.727-8.468-10.778-14.864-29.688z"/><path d="M81.81 181.16s-20.914 14.523-14.524 58.09" stroke="url(#i)" stroke-width="1.015" fill="none"/><path fill="url(#j)" d="M142.42 162.16s-23.26-15.724-41.437-11.787-6.39 2.905 5.81 4.647 35.82 12.78 35.82 12.78l-.193-5.64z"/><g stroke-width="3.129" fill="none"><path d="M109.11 169.55s15.103 3.485 17.427 6.97" stroke="url(#k)"/><path d="M97.75 284.19l5.435 3.312" stroke="url(#l)"/><path d="M112.44 290.6s-4.33-.17-10.02-2.802" stroke="url(#m)"/></g><path fill="url(#n)" d="M142.19 163.76l12.2 200.41s18.925 87.67 124.31 75.517c43.793-4.17 49.53-5.246 71.27-21.465 28.844-17.55 30.39-53.47 30.39-53.47l23.816-190.54s15.627-27.067 11.618-51.12C411.728 98.694 381.52 76.04 381.52 76.04S336.67 40.43 259.53 45.83c-81.807 5.73-126.57 30.426-127.8 79.003 0 0-.58 16.265 10.457 38.92 0 .002.002.004.003.005z"/><path fill="url(#o)" d="M280.44 202.1c-99.334-.58-127.22-48.215-127.22-48.215 9.545-59.833 101.63-64.864 112.7-65.06 5.605-.1 33.963 1.097 62.163 11.106 27.823 9.875 56.244 23.746 61.222 48.727 1.41 10.52-1.785 18.367-5.06 23.128-11.78 17.136-68.468 29.17-103.8 30.315z"/><path fill="url(#p)" d="M243.36 437.25s17.533-142.8 39.153-141.53c21.62 1.272 22.256 140.49 22.256 140.49s-29.464 7.402-61.41 1.043z"/><path fill="url(#q)" d="M265.89 227.74s17.417 2.28 32.036 0c14.618-2.28-5.702 47.69-5.702 47.69s-15.55 2.904-17.417 3.008c-1.866.103-15.448-45.1-15.448-45.1l6.53-5.598z"/><path d="M261.37 206.98s26.29 1.18 39.956.07" stroke="url(#r)" stroke-width="3.129" fill="none"/><path d="M258.71 89.584s6.793-1.045 17.14-.314" stroke="url(#s)" stroke-width="3.129" fill="none"/><path fill="url(#t)" transform="translate(-191.22 -76.725) scale(.4228)" d="M1111.1 306.34c0 4.232-12.34 7.663-27.562 7.663s-27.562-3.43-27.562-7.663 12.34-7.663 27.562-7.663 27.562 3.43 27.562 7.663z"/><path fill="url(#u)" d="M283.38 209.63s-97.49 10.122-148.69-65.38 3.472 11.506 7.49 19.45c.227 3.183.343 3.772.73 10.495.765 13.35 2.202 37.76 2.202 37.76s1.756 10.455 12.212 4.646c10.456-5.808 17.427-8.712 33.112-6.39 15.684 2.325 56.93 11.62 91.202 11.038 34.273-.58 73.194-12.78 94.106-12.2 20.913.582 18.008 9.877 18.008 9.877s4.647 12.2 5.81-1.743 4.646-43.568 4.646-43.568 2.905-3.485 8.133-20.913-26.72 59.834-128.96 56.93z"/><path fill="url(#v)" d="M267.12 124.24s51.7 2.324 84.812 17.427c33.11 15.103 12.78-10.456 12.78-10.456s-29.626-33.69-93.525-33.69-86.555 27.882-86.555 27.882-20.913 22.074 17.427 8.714c38.34-13.36 65.06-9.876 65.06-9.876z"/><path fill="url(#w)" d="M153.26 154.44c-.37.516 1.06-56.933 114.44-65.658 26.38-2.03 148.7 25.427 116.63 83.323 0 0 53.338-42.438-11.49-90.86 0 0-41.824-27.882-105.14-27.3-63.317.58-102.52 31.19-107.47 36.596-4.646 5.084-31.368 28.465-6.97 63.9z"/><rect rx="1.339" ry="1.339" height="192.86" width="293.94" y="44.071" x="127.41" fill="url(#x)"/></g></svg>