<svg xmlns="http://www.w3.org/2000/svg" viewBox="0 0 174.38 210.56" version="1"><defs><radialGradient id="a" gradientUnits="userSpaceOnUse" cy="602.72" cx="328.57" gradientTransform="matrix(1 0 0 .17718 0 495.93)" r="147.14"><stop stop-color="#484849" offset="0"/><stop stop-color="#434344" offset="0"/><stop stop-color="#8F8F90" stop-opacity="0" offset="1"/></radialGradient><linearGradient id="d" y2="592.82" gradientUnits="userSpaceOnUse" x2="540.12" y1="628.79" x1="259.61"><stop stop-color="#438ab9" offset="0"/><stop stop-color="#39769e" offset="1"/></linearGradient><linearGradient id="c" y2="737.02" gradientUnits="userSpaceOnUse" x2="470" gradientTransform="translate(-48.3 -87.986) scale(.4713)" y1="737.02" x1="175.72"><stop stop-color="#1B4A78" offset="0"/><stop stop-color="#5DACD1" offset="1"/></linearGradient><linearGradient id="b" y2="592.82" gradientUnits="userSpaceOnUse" y1="628.79" x2="540.12" x1="259.61"><stop stop-color="#1c4764" offset="0"/><stop stop-color="#39769e" offset="1"/></linearGradient><linearGradient id="e" y2="737.02" gradientUnits="userSpaceOnUse" x2="470" gradientTransform="translate(-49.236 -167.54) scale(.4713)" y1="737.02" x1="175.72"><stop stop-color="#1B4A78" offset="0"/><stop stop-color="#5DACD1" offset="1"/></linearGradient><linearGradient id="f" y2="619.41" gradientUnits="userSpaceOnUse" x2="512.76" y1="602.72" x1="256.64"><stop stop-color="#5295c0" offset="0"/><stop stop-color="#5f9dc5" offset="1"/></linearGradient></defs><path transform="matrix(.59257 0 0 1.0459 -107.508 -447.107)" fill="url(#a)" d="M475.71 602.72c0 14.4-65.878 26.07-147.14 26.07-81.265 0-147.14-11.672-147.14-26.07s65.878-26.07 147.14-26.07c81.265 0 147.14 11.672 147.14 26.07z"/><path transform="matrix(.4713 0 0 1.0459 -64.05 -466.827)" fill="url(#b)" d="M475.71 602.72c0 14.4-65.878 26.07-147.14 26.07-81.265 0-147.14-11.672-147.14-26.07s65.878-26.07 147.14-26.07c81.265 0 147.14 11.672 147.14 26.07z"/><path d="M34.535 224.2v.295c.006-.098.02-.198.03-.295h-.03zm138.62 0c.03.33.06.668.06 1.002V224.2h-.06zm.06 1.002c0 15.05-31.076 27.26-69.357 27.26-37.683.002-68.377-11.827-69.326-26.554v40.68c-.015.234-.015.458-.015.693 0 .226 0 .454.015.678.91 14.74 31.62 26.6 69.326 26.6 37.708 0 68.415-11.86 69.326-26.6h.03v-.5-.177-42.078z" fill="url(#c)" transform="translate(-13.065 -105.447)"/><path transform="matrix(.4713 0 0 1.0459 -64.03 -510.467)" fill="url(#d)" d="M475.71 602.72c0 14.4-65.878 26.07-147.14 26.07-81.265 0-147.14-11.672-147.14-26.07s65.878-26.07 147.14-26.07c81.265 0 147.14 11.672 147.14 26.07z"/><g><path transform="matrix(.4713 0 0 1.0459 -63.92 -512.347)" fill="url(#b)" d="M475.71 602.72c0 14.4-65.878 26.07-147.14 26.07-81.265 0-147.14-11.672-147.14-26.07s65.878-26.07 147.14-26.07c81.265 0 147.14 11.672 147.14 26.07z"/><path d="M34.535 224.2v.295c.006-.098.02-.198.03-.295h-.03zm138.62 0c.03.33.06.668.06 1.002V224.2h-.06zm.06 1.002c0 15.05-31.076 27.26-69.357 27.26-37.683.002-68.377-11.827-69.326-26.554v40.68c-.015.234-.015.458-.015.693 0 .226 0 .454.015.678.91 14.74 31.62 26.6 69.326 26.6 37.708 0 68.415-11.86 69.326-26.6h.03v-.5-.177-42.078z" fill="url(#c)" transform="translate(-12.936 -150.967)"/><path transform="matrix(.4713 0 0 1.0459 -63.9 -555.987)" fill="url(#d)" d="M475.71 602.72c0 14.4-65.878 26.07-147.14 26.07-81.265 0-147.14-11.672-147.14-26.07s65.878-26.07 147.14-26.07c81.265 0 147.14 11.672 147.14 26.07z"/></g><g><path transform="matrix(.4713 0 0 1.0459 -64.105 -558.067)" fill="url(#b)" d="M475.71 602.72c0 14.4-65.878 26.07-147.14 26.07-81.265 0-147.14-11.672-147.14-26.07s65.878-26.07 147.14-26.07c81.265 0 147.14 11.672 147.14 26.07z"/><path d="M33.6 144.64v.295c.005-.098.02-.198.028-.295h-.03zm138.62 0c.03.33.058.668.058 1.002v-1.002h-.06zm.058 1.002c0 15.05-31.075 27.26-69.356 27.26-37.683.002-68.377-11.827-69.326-26.554v40.68c-.015.234-.015.458-.015.693 0 .226.002.454.016.678.91 14.74 31.62 26.6 69.326 26.6 37.708 0 68.415-11.86 69.326-26.6h.03v-.5-.177-42.078z" fill="url(#e)" transform="translate(-12.184 -117.127)"/><path transform="matrix(.4713 0 0 1.0459 -64.084 -601.707)" fill="url(#d)" d="M475.71 602.72c0 14.4-65.878 26.07-147.14 26.07-81.265 0-147.14-11.672-147.14-26.07s65.878-26.07 147.14-26.07c81.265 0 147.14 11.672 147.14 26.07z"/><path transform="matrix(.4628 0 0 1.0271 -60.936 -592.257)" fill="url(#f)" d="M475.71 602.72c0 14.4-65.878 26.07-147.14 26.07-81.265 0-147.14-11.672-147.14-26.07s65.878-26.07 147.14-26.07c81.265 0 147.14 11.672 147.14 26.07z"/></g></svg>