<svg xmlns:rdf="http://www.w3.org/1999/02/22-rdf-syntax-ns#" xmlns="http://www.w3.org/2000/svg" height="100%" viewBox="0 0 174.38 210.56" width="100%" version="1.0" xmlns:cc="http://creativecommons.org/ns#" xmlns:dc="http://purl.org/dc/elements/1.1/">
<defs>
<radialGradient id="radialGradient3693" gradientUnits="userSpaceOnUse" cy="602.72" cx="328.57" gradientTransform="matrix(1 0 0 .17718 0 495.93)" r="147.14">
<stop stop-color="#484849" offset="0"/>
<stop stop-color="#434344" offset="0"/>
<stop stop-color="#8F8F90" stop-opacity="0" offset="1"/>
</radialGradient>
<linearGradient id="linearGradient3643-5" y2="592.82" gradientUnits="userSpaceOnUse" x2="540.12" y1="628.79" x1="259.61">
<stop stop-color="#438ab9" offset="0"/>
<stop stop-color="#39769e" offset="1"/>
</linearGradient>
<linearGradient id="linearGradient2840-1" y2="737.02" gradientUnits="userSpaceOnUse" x2="470" gradientTransform="matrix(.47131 0 0 .47131 -48.3 -87.986)" y1="737.02" x1="175.72">
<stop stop-color="#1B4A78" offset="0"/>
<stop stop-color="#5DACD1" offset="1"/>
</linearGradient>
<linearGradient id="linearGradient3727" y2="592.82" gradientUnits="userSpaceOnUse" y1="628.79" x2="540.12" x1="259.61">
<stop stop-color="#1c4764" offset="0"/>
<stop stop-color="#39769e" offset="1"/>
</linearGradient>
<linearGradient id="linearGradient3862" y2="737.02" gradientUnits="userSpaceOnUse" x2="470" gradientTransform="matrix(.47131 0 0 .47131 -49.236 -167.54)" y1="737.02" x1="175.72">
<stop stop-color="#1B4A78" offset="0"/>
<stop stop-color="#5DACD1" offset="1"/>
</linearGradient>
<linearGradient id="linearGradient3866" y2="619.41" gradientUnits="userSpaceOnUse" x2="512.76" y1="602.72" x1="256.64">
<stop stop-color="#5295c0" offset="0"/>
<stop stop-color="#5f9dc5" offset="1"/>
</linearGradient>
</defs>
<g transform="translate(-9.3915 2.1432)">
<path transform="matrix(.59257 0 0 1.0459 -98.117 -449.25)" fill="url(#radialGradient3693)" d="m475.71 602.72c0 14.399-65.878 26.071-147.14 26.071-81.265 0-147.14-11.673-147.14-26.071s65.878-26.071 147.14-26.071c81.265 0 147.14 11.673 147.14 26.071z"/>
<g transform="translate(-3.6739 -107.59)">
<path transform="matrix(.47131 0 0 1.0459 -50.985 -361.38)" fill="url(#linearGradient3727)" d="m475.71 602.72c0 14.399-65.878 26.071-147.14 26.071-81.265 0-147.14-11.673-147.14-26.071s65.878-26.071 147.14-26.071c81.265 0 147.14 11.673 147.14 26.071z"/>
<path d="m34.535 224.2v0.29457c0.006-0.0975 0.0206-0.19729 0.0295-0.29457h-0.0295zm138.62 0c0.0302 0.33044 0.0589 0.66821 0.0589 1.0015v-1.0015h-0.0589zm0.0589 1.0015c-0.00001 15.052-31.075 27.262-69.356 27.262-37.683 0.00001-68.377-11.828-69.326-26.555v40.68c-0.0151 0.23376-0.0147 0.45704-0.0147 0.69223 0 0.22546 0.00087 0.45335 0.0147 0.67751 0.91151 14.741 31.619 26.599 69.326 26.599 37.708 0 68.415-11.858 69.326-26.599h0.0295v-0.50077c0.00095-0.0587 0-0.11794 0-0.17674s0.00094-0.11803 0-0.17674v-41.902z" fill="url(#linearGradient2840-1)"/>
<path transform="matrix(.47131 0 0 1.0459 -50.965 -405.02)" fill="url(#linearGradient3643-5)" d="m475.71 602.72c0 14.399-65.878 26.071-147.14 26.071-81.265 0-147.14-11.673-147.14-26.071s65.878-26.071 147.14-26.071c81.265 0 147.14 11.673 147.14 26.071z"/>
</g>
<g transform="translate(-3.5441 -153.11)">
<path transform="matrix(.47131 0 0 1.0459 -50.985 -361.38)" fill="url(#linearGradient3727)" d="m475.71 602.72c0 14.399-65.878 26.071-147.14 26.071-81.265 0-147.14-11.673-147.14-26.071s65.878-26.071 147.14-26.071c81.265 0 147.14 11.673 147.14 26.071z"/>
<path d="m34.535 224.2v0.29457c0.006-0.0975 0.0206-0.19729 0.0295-0.29457h-0.0295zm138.62 0c0.0302 0.33044 0.0589 0.66821 0.0589 1.0015v-1.0015h-0.0589zm0.0589 1.0015c-0.00001 15.052-31.075 27.262-69.356 27.262-37.683 0.00001-68.377-11.828-69.326-26.555v40.68c-0.0151 0.23376-0.0147 0.45704-0.0147 0.69223 0 0.22546 0.00087 0.45335 0.0147 0.67751 0.91151 14.741 31.619 26.599 69.326 26.599 37.708 0 68.415-11.858 69.326-26.599h0.0295v-0.50077c0.00095-0.0587 0-0.11794 0-0.17674s0.00094-0.11803 0-0.17674v-41.902z" fill="url(#linearGradient2840-1)"/>
<path transform="matrix(.47131 0 0 1.0459 -50.965 -405.02)" fill="url(#linearGradient3643-5)" d="m475.71 602.72c0 14.399-65.878 26.071-147.14 26.071-81.265 0-147.14-11.673-147.14-26.071s65.878-26.071 147.14-26.071c81.265 0 147.14 11.673 147.14 26.071z"/>
</g>
<g transform="translate(-2.7923 -119.27)">
<path transform="matrix(.47131 0 0 1.0459 -51.921 -440.94)" fill="url(#linearGradient3727)" d="m475.71 602.72c0 14.399-65.878 26.071-147.14 26.071-81.265 0-147.14-11.673-147.14-26.071s65.878-26.071 147.14-26.071c81.265 0 147.14 11.673 147.14 26.071z"/>
<path d="m33.599 144.64v0.29457c0.006-0.0975 0.0206-0.19729 0.0295-0.29457h-0.0295zm138.62 0c0.0302 0.33044 0.0589 0.66821 0.0589 1.0015v-1.0015h-0.0589zm0.0589 1.0015c-0.00001 15.052-31.075 27.262-69.356 27.262-37.683 0.00001-68.377-11.828-69.326-26.555v40.68c-0.0151 0.23376-0.0147 0.45704-0.0147 0.69223 0 0.22546 0.00087 0.45335 0.0147 0.67751 0.91151 14.741 31.619 26.599 69.326 26.599 37.708 0 68.415-11.858 69.326-26.599h0.0295v-0.50077c0.00095-0.0587 0-0.11794 0-0.17674s0.00094-0.11803 0-0.17674v-41.902z" fill="url(#linearGradient3862)"/>
<path transform="matrix(.47131 0 0 1.0459 -51.9 -484.58)" fill="url(#linearGradient3643-5)" d="m475.71 602.72c0 14.399-65.878 26.071-147.14 26.071-81.265 0-147.14-11.673-147.14-26.071s65.878-26.071 147.14-26.071c81.265 0 147.14 11.673 147.14 26.071z"/>
<path transform="matrix(.46281 0 0 1.0271 -48.752 -475.13)" fill="url(#linearGradient3866)" d="m475.71 602.72c0 14.399-65.878 26.071-147.14 26.071-81.265 0-147.14-11.673-147.14-26.071s65.878-26.071 147.14-26.071c81.265 0 147.14 11.673 147.14 26.071z"/>
</g>
</g>
</svg>
