<svg xmlns="http://www.w3.org/2000/svg" xmlns:xlink="http://www.w3.org/1999/xlink" viewBox="0 0 233.1 286.61"><defs><linearGradient id="a"><stop stop-color="#fff" offset="0"/><stop stop-color="#fff" stop-opacity="0" offset="1"/></linearGradient><linearGradient id="b" x1="269.97" spreadMethod="reflect" gradientUnits="userSpaceOnUse" y1="511.97" gradientTransform="translate(278.63 -3355.4) scale(4.9627)" x2="286.63" y2="511.97"><stop stop-color="#497bb3" offset="0"/><stop stop-color="#a5c4e6" offset=".205"/><stop stop-color="#3b5d8b" offset="1"/></linearGradient><linearGradient id="c" y2="527.34" gradientUnits="userSpaceOnUse" y1="518.56" x2="286.63" x1="282.36"><stop stop-color="#a5c4e6" offset="0"/><stop stop-color="#497bb3" offset="1"/></linearGradient><linearGradient id="d" x1="308.5" xlink:href="#a" spreadMethod="reflect" gradientUnits="userSpaceOnUse" y1="522.61" gradientTransform="translate(407.33 -3062.9) scale(4.1992)" x2="327.78" y2="520.33"/><linearGradient id="e" x1="308.5" xlink:href="#a" spreadMethod="reflect" gradientUnits="userSpaceOnUse" y1="522.61" gradientTransform="translate(407.33 -3015.8) scale(4.1992)" x2="327.78" y2="520.33"/><linearGradient id="f" x1="308.5" xlink:href="#a" spreadMethod="reflect" gradientUnits="userSpaceOnUse" y1="522.61" gradientTransform="translate(407.33 -2971.6) scale(4.1992)" x2="327.78" y2="520.33"/></defs><g class="Graphic"><path d="M182.94 16.345c2.367 3.884 1.61 189.2-1.47 196.493-2.414 5.778-80.652 70.802-84.724 72.507-52.9-.332-88.562-19.607-94.482-29.79-2.273-12.786-.33-209.942 1.8-214.062 1.894-3.6 101.964-39.45 105.47-40.303 3.172-.71 70.706 10.845 73.405 15.155z" fill="#c7c7c7"/><path d="M181.897 16.96l.095-.047-.095.095c0-.047-.047-.047-.047-.047v-.094l.33-.142-.093.095-.237.046.237-.047-.095.093-.095.048zm.095-.047l.095-.094.094-.096.238-.095-.237.19.238-.19h.048l-.285.14v.05-.05l-.188.143zm.474-.284h-.048.048-.048l.52-.285-.472.237v.047zm.52-.19l-.52.19v-.048l.52-.142zm.948-.71c-.095-.143-.19-.285-.332-.427-.095-.142-.237-.237-.38-.33-.236-.19-.567-.38-.946-.57-.33-.19-.71-.33-1.137-.52s-.9-.332-1.42-.522c-.996-.377-2.227-.756-3.553-1.135-1.374-.38-2.89-.758-4.5-1.184-6.44-1.61-14.823-3.41-23.395-5.02-8.572-1.657-17.238-3.125-24.2-4.262-3.457-.52-6.536-.994-8.95-1.278-1.185-.142-2.227-.284-3.08-.38-.426-.046-.805-.046-1.136-.094-.19 0-.332 0-.474-.047h-.426c-.142 0-.237 0-.33.046h-.19c-.096 0-.143 0-.19.048-.095 0-.19.047-.332.094-.094 0-.237.048-.38.095s-.33.095-.52.142c-.19.095-.378.142-.615.237a23.41 23.41 0 0 0-1.66.568c-.614.19-1.325.426-2.083.71-1.562.52-3.362 1.185-5.446 1.895-2.035.71-4.31 1.515-6.82 2.415-9.897 3.552-22.778 8.193-35.66 12.977C42.946 23.97 30.11 28.8 20.403 32.684c-2.416.994-4.64 1.894-6.63 2.7-2.037.852-3.79 1.61-5.257 2.273-.758.33-1.42.663-1.99.947a22.93 22.93 0 0 0-1.562.805c-.237.094-.427.236-.616.33-.19.143-.38.237-.474.332-.19.142-.33.237-.426.33-.237.19-.33.38-.426.522-.047.095-.095.237-.19.427 0 .143-.047.285-.047.427-.047.142-.047.33-.095.52s-.047.38-.094.617c0 .426-.048.947-.142 1.515 0 .615-.048 1.278-.095 1.988-.096 1.468-.19 3.268-.285 5.257-.095 2.036-.19 4.31-.237 6.82-.332 10.087-.663 23.87-.9 39.544-.52 31.35-.9 70.186-.9 101.537 0 14.587.095 27.61.237 37.46.048 2.464.095 4.737.142 6.774s.142 3.884.19 5.447c.047 1.61.142 2.936.19 4.026.046.568.094 1.04.14 1.42.05.237.05.427.05.616.046.14.093.33.093.473l.048.19.094.188c.427.712.948 1.422 1.563 2.18.663.758 1.42 1.515 2.273 2.32 1.658 1.516 3.79 3.126 6.394 4.784 5.067 3.315 11.792 6.725 20.033 9.803 8.193 3.078 17.854 5.873 28.794 7.91s23.158 3.314 36.418 3.41h.284l.237-.096.378-.188c.095-.095.237-.142.38-.284.14-.095.283-.19.473-.284l.57-.427c.425-.284.9-.615 1.42-1.042.52-.38 1.09-.805 1.752-1.326 1.28-.948 2.747-2.132 4.404-3.458s3.505-2.794 5.494-4.404c8.004-6.44 18.233-14.918 28.415-23.538 10.183-8.572 20.365-17.333 28.084-24.248 1.94-1.752 3.74-3.362 5.35-4.878 1.61-1.468 3.032-2.794 4.216-3.978.616-.615 1.136-1.136 1.61-1.657.52-.522.947-.948 1.326-1.375s.663-.805.9-1.09c.142-.188.237-.378.33-.473.096-.19.19-.378.286-.52 0-.095.047-.237.094-.38s.095-.236.142-.426c.048-.284.095-.615.142-1.042.095-.378.143-.805.19-1.326s.095-1.04.142-1.657c.095-1.183.19-2.604.332-4.214.047-1.61.142-3.41.236-5.352.38-7.86.663-18.517.9-30.688.474-24.438.758-55.126.758-82.547 0-18.424-.142-35.378-.38-47.93-.046-3.124-.094-6.013-.188-8.57a202.11 202.11 0 0 0-.237-6.584c-.05-.947-.096-1.8-.143-2.51a72.516 72.516 0 0 0-.142-1.94c-.048-.285-.048-.522-.095-.76s-.047-.473-.095-.615c-.047-.188-.047-.378-.095-.52-.047-.094-.047-.19-.094-.236-.048-.143-.095-.237-.142-.285zm-1.753.994l.57-.568-.57.568zm-.283.426c.048.142.048.332.095.52 0 .19.047.427.047.71.047.522.14 1.138.19 1.85 0 .71.046 1.56.093 2.46.095 1.848.19 4.074.285 6.584.047 2.51.094 5.4.19 8.525.236 12.502.33 29.456.33 47.88 0 27.372-.236 58.108-.71 82.498-.284 12.172-.568 22.78-.9 30.594-.094 1.99-.19 3.742-.284 5.352-.095 1.563-.19 2.983-.284 4.167-.047.57-.095 1.138-.19 1.612 0 .473-.094.852-.14 1.23-.05.332-.096.664-.144.853 0 .142-.047.19-.047.285 0 .047-.048.094-.048.094 0 .048-.048.095-.095.19-.047.047-.142.19-.19.284-.236.284-.473.616-.805.994-.33.332-.757.806-1.23 1.28l-1.61 1.61c-1.185 1.136-2.558 2.462-4.17 3.93a213.93 213.93 0 0 1-5.303 4.83c-7.72 6.915-17.855 15.63-28.037 24.25-10.183 8.57-20.412 17.048-28.32 23.44-1.99 1.612-3.837 3.08-5.495 4.406s-3.126 2.462-4.404 3.457c-.616.474-1.232.947-1.753 1.326-.472.38-.946.71-1.325.996-.19.142-.378.284-.568.378-.142.095-.284.19-.38.285-.093.046-.188.093-.236.14-13.07-.094-25.004-1.373-35.755-3.362-10.798-1.99-20.317-4.736-28.415-7.767-8.004-3.03-14.587-6.345-19.56-9.565-2.415-1.563-4.45-3.126-6.06-4.594a20.74 20.74 0 0 1-2.038-2.083c-.473-.568-.9-1.09-1.23-1.61v-.19c-.05-.142-.05-.33-.05-.52-.046-.38-.093-.853-.14-1.327-.095-1.09-.143-2.415-.237-3.978a724.55 724.55 0 0 1-.142-5.446c-.048-1.99-.095-4.262-.143-6.725-.142-9.85-.236-22.826-.236-37.413 0-31.35.33-70.138.852-101.49.284-15.63.568-29.458.9-39.498.095-2.51.19-4.784.284-6.82.095-1.99.142-3.742.237-5.162.047-.758.095-1.42.142-1.99s.094-1.04.14-1.468c0-.19.048-.38.048-.52.048-.19.048-.285.095-.427v-.095c0-.047.047-.047.095-.094.095-.048.19-.142.33-.237.19-.047.333-.19.522-.284.427-.237.9-.474 1.468-.758s1.232-.568 1.942-.9c1.468-.663 3.173-1.373 5.162-2.226 1.99-.806 4.215-1.753 6.63-2.7 9.71-3.884 22.496-8.714 35.33-13.45 12.835-4.783 25.716-9.472 35.614-12.977 2.463-.9 4.784-1.704 6.82-2.415 2.037-.758 3.884-1.373 5.4-1.894a80.66 80.66 0 0 0 2.083-.758c.615-.19 1.183-.38 1.656-.52.19-.096.427-.143.616-.19.19-.095.332-.142.474-.19s.237-.047.38-.095l.14-.046-.094-.38.047.38h.568c.094 0 .236 0 .38.047.33 0 .662.05 1.088.096.805.048 1.847.19 3.03.332 2.37.284 5.4.757 8.857 1.278 6.962 1.09 15.58 2.605 24.106 4.215 8.523 1.66 16.906 3.41 23.3 5.02 1.61.428 3.078.807 4.356 1.185 1.326.38 2.51.71 3.458 1.09.473.142.947.33 1.326.473.33.142.71.284.947.426s.473.237.616.38.047 0 .047.047.047.143.047.19zm-85.53 267.058c.047 0 .047-.047.094-.047h.286v.664l-.38-.616.38.616v.52l-.474-1.09s.047-.046.095-.046zm-93.06-29.22c.046.047.046.142.094.19s.048.14.048.188l-1.184.19.995-.52.046-.05-.047.05.046-.05H3.4h-.094zM5.152 41.965v.142c-.047 0-.047.048-.095.048l-.236-.284-.805-.19.805.19-.095-.048.19.095.236.046zm-.33-.094l.093.047-.094-.048zm-.76-.38l.664.332-.663-.33zm.664.332l-.474-.52.474.52zm104.995-39.83l-.095-.804.095.805zm-.19-.804l.19.805v.048l-.19-.853z"/><path d="M179.103 20.18l-2.463 1.043-2.462 1.09-2.463 1.09-2.51 1.183-2.51 1.184-2.51 1.23-2.51 1.232-2.557 1.28-2.558 1.278-2.557 1.326-2.605 1.326-2.557 1.373-2.604 1.374-2.605 1.372-5.256 2.84-5.304 2.843-5.304 2.842-5.352 2.888-5.4 2.842-5.398 2.842-5.4 2.793-2.698 1.373-2.7 1.374-2.746 1.326-2.7 1.326-1.28-.284-1.325-.332-2.652-.616-2.747-.663-2.794-.615-2.84-.663-2.89-.664-2.89-.663-2.983-.663-2.935-.663-2.984-.71-6.013-1.327-6.015-1.326-3.03-.663-2.984-.662-2.937-.616-2.935-.615-2.89-.616-2.84-.615-2.842-.615-2.747-.57-2.7-.567-1.325-.237-1.325-.284-1.28-.237-1.278-.284-1.278-.236-1.233-.236-1.23-.237-1.185-.283-1.184-.19-1.137-.237-1.135-.236-1.137-.19-1.09-.19-1.04-.236-1.043-.19-.994-.142-.994-.19-.947-.19 2.462.76 2.462.757 2.51.758 2.558.71 2.604.76 2.605.71 2.7.757 2.653.71 2.7.758 2.746.71 5.493 1.47 5.54 1.42 5.59 1.468 5.587 1.468 5.54 1.42 5.495 1.47 2.747.71 2.7.758 2.7.71 2.65.758 2.606.71 2.604.758 2.558.71 2.51.758 2.463.758 2.462.758.048 2.84.094 2.89.048 2.89.047 2.983.047 3.032.094 3.03.047 3.08.05 3.125.046 3.173.047 3.173.048 3.22v3.268l.048 3.27.048 3.314.047 3.315v3.36l.047 3.364v3.41l.048 3.41.047 3.457.047 6.915.048 6.962v7.057l.047 7.056.095 14.16.047 14.208.047 7.057.047 7.01.047 6.96.05 6.915.046 3.457v3.41l.047 3.41.048 3.362v3.362l.048 3.362.047 3.268.048 3.315v3.22l.047 3.22.047 3.174.048 3.174.047 3.126.048 3.078.047 3.08.095 2.982.047 2.984.046 2.936.095 2.89.048 2.84.048-2.888.047-2.89v-2.983l.047-2.984.048-3.03.047-3.08.048-3.125.047-3.173.047-3.173.048-3.22.047-3.268.095-3.268.047-3.315.047-3.362.05-3.362.046-3.41.048-3.41.094-3.457.048-3.456.047-3.457.142-7.01.142-7.056.095-7.15.142-7.15.284-14.35.237-14.35.142-7.152.142-7.104.094-7.056.142-7.057.047-3.456.095-3.457.047-3.457.048-3.41.047-3.363.047-3.41.048-3.315.094-3.315.047-3.315.047-3.22.047-3.22.05-3.22.046-3.127.048-3.126.047-3.08.048-3.03.048-3.03v-2.937l.047-2.937.047-2.84 5.21-2.795 5.162-2.793 5.162-2.7 5.162-2.747 5.115-2.7 5.068-2.746 5.068-2.7 5.067-2.746 4.973-2.747 4.973-2.746 4.924-2.842 4.878-2.84 2.415-1.422 2.368-1.468 2.416-1.468 2.37-1.468 2.367-1.468 2.367-1.516 2.32-1.515 2.37-1.516z" stroke="#fff" fill="#fff" stroke-opacity=".541" fill-opacity=".541" stroke-width=".04736"/><path d="M179.103 20.18c-26 10.988-54.747 28.7-83.73 42.672-27.47-6.536-67.11-15.25-87.094-18.755 25.715 8.004 59.53 15.487 85.245 23.49 1.516 60.194.758 151.36 2.273 211.554.758-60.714 2.795-153.348 3.552-214.015 27.753-15.013 54.984-28.463 79.753-44.944z" fill="none"/><path d="M17.987 218.426l.474.663.475.615.52.616.57.616.567.57.57.567.662.568.615.57.662.568.71.52.71.522.76.52.71.522.804.473.758.474.805.52.852.426.852.474.852.426.853.38.9.425.9.38.898.38.9.378 1.895.71 1.894.663 1.942.57 1.94.52 1.99.474 1.94.426 1.99.38 1.942.283 1.942.284 1.94.142.996.094.947.047.9.05h2.794l.9-.05.9-.046.853-.047.9-.048.805-.095.853-.143.806-.094.805-.142.806-.19.758-.19.71-.19.71-.188.71-.237.71-.236-.093-.047h-.047l-.237-.095-.284-.047-.33-.095-.38-.095-.474-.142-.473-.142-.57-.14-.614-.19-.662-.142-.71-.19-.758-.236-.758-.19-.853-.237-.853-.237-.9-.236-.947-.284-.947-.237-.995-.283-1.042-.285-1.042-.284-1.042-.284-1.09-.33-1.135-.286-2.274-.615-2.32-.663-2.368-.663-2.368-.616-2.368-.71-2.37-.615-2.32-.663-2.32-.616-1.09-.33-1.136-.285-1.09-.33-1.04-.285-1.043-.284-.994-.283-.994-.284-.947-.237-.9-.284-.9-.237-.853-.237-.805-.237-.757-.188-.71-.237-.71-.19-.617-.19-.568-.14-.568-.143-.474-.142-.426-.142-.332-.095-.33-.095-.238-.094h-.095l-.095-.048z" stroke="#fff" stroke-opacity=".161" fill-opacity=".161" stroke-width=".04736"/><path d="M17.987 218.426c9.52 13.687 39.45 20.412 53.658 14.918-2.51-.663-50.484-13.876-53.658-14.918z" fill="none"/><path d="M66.957 193.09L22.63 175.992l-.428.19-.378.188-.38.19-.283.238-.284.284-.284.284-.237.33-.236.286-.19.33-.19.333-.142.33-.142.38-.143.38-.094.33-.143.71-.095.71-.095.664v1.75l.048.19v.285l6.914 2.415.046.048.048.047.047.047.048.095.095.095.048.142.143.142.094.142.142.19.142.19.142.188.19.237.188.19.19.284.237.19.472.568.474.52.616.57.615.567.663.616.71.568.806.616.805.568.9.568.9.52.995.522 1.042.474.52.19.522.236.567.19.568.19.616.14.57.143.615.142.616.142.616.095.616.047.663.094.663.047h2.084l.71-.046.71-.095.71-.095.76-.095.757-.142.756-.19.758-.19.805-.236.804-.284h.048l.094.047h.142l.285.048.284.047.33.047.38.048.426.047.474.048.52.047.57.047.568.048h.568l.616.047h1.23l.663-.048.616-.048.662-.047.615-.095.616-.095.568-.142.57-.142.568-.142.473-.236.522-.236.427-.284.377-.285.38-.38.14-.19.144-.188.143-.19.094-.19.095-.236.095-.237z" stroke="#fff" fill="#fff" stroke-opacity=".388" fill-opacity=".388" stroke-width=".04736"/><path d="M66.957 193.09L22.63 175.992c-4.595 1.61-3.695 8.382-3.695 8.382l6.914 2.415s9.66 15.108 26.804 9.188 12.74 2.273 14.303-2.89z" fill="none"/><path d="M66.578 187.31c-14.73-3.835-29.457-7.623-44.186-11.46-.568 2.084-.616 5.068.284 6.63 2.226 1.09 6.725 1.942 8.95 3.032 6.442 6.204 12.077 6.725 22.354 5.872 3.98.805 7.957 1.468 11.887 2.273 1.232-2.415 1.563-3.41.71-6.346z" fill="#606060"/><path d="M66.578 187.31c-14.73-3.835-29.457-7.623-44.186-11.46-.568 2.084-.616 5.068.284 6.63 2.226 1.09 6.725 1.942 8.95 3.032 6.442 6.204 12.077 6.725 22.354 5.872 3.98.805 7.957 1.468 11.887 2.273 1.232-2.415 1.563-3.41.71-6.346z" fill="none"/><path d="M180.713 18.855L94.85 67.02l.333 215.436 84.062-70.755 1.468-192.845z" stroke="#fff" fill="#fff" stroke-opacity=".4" fill-opacity=".4" stroke-width=".04736"/><path d="M180.713 18.855L94.85 67.02l.333 215.436 84.062-70.755 1.468-192.845z" fill="none"/><path d="M22.96 232.066l.474.615.52.57.474.615.52.52.522.57.52.52.57.52.568.475.568.474.568.473.616.474.568.427.616.426.616.38 1.278.804 1.326.71 1.326.664 1.327.616 1.373.52 1.373.522 1.42.426 1.422.38 1.373.378 1.42.284 1.422.237 1.42.19 1.42.142 1.422.094 1.374.094h1.373l1.372-.047 1.28-.095 1.325-.095 1.28-.142 1.23-.237 1.184-.236 1.138-.284 1.136-.285 1.042-.38-.094-.046h-.19l-.19-.095-.236-.047-.284-.095-.38-.094-.378-.095-.426-.094-.474-.142-.473-.142-.52-.142-.57-.142-.614-.19-.616-.142-.663-.19-.71-.19-.71-.188-.71-.237-.76-.188-.757-.237-.805-.19-.852-.236-1.658-.475-1.705-.473-1.8-.474-1.8-.474-1.8-.52-3.598-.995-1.752-.475-1.753-.52-1.704-.474-.806-.19-.805-.235-.805-.237-.757-.19-.758-.236-.71-.19-.71-.19-.664-.19-.663-.188-.616-.19-.57-.142-.52-.142-.568-.142-.474-.142-.426-.142-.38-.095-.378-.143-.33-.047-.286-.095-.236-.095-.19-.047-.142-.047z" stroke="#fff" stroke-opacity=".161" fill-opacity=".161" stroke-width=".04736"/><path d="M22.96 232.066c9.898 13.07 29.694 15.297 40.776 11.318-1.847-.473-38.36-10.513-40.776-11.318z" fill="none"/><path d="M30.3 245.468l.57.71.567.664.616.663.663.568.663.616.662.52.71.52.758.522.71.426.806.426.758.426.805.332.85.33.806.333.853.237.85.236.854.237.9.142.852.19.9.094.852.096.9.047h1.8l.852-.047.9-.095.852-.093.9-.142.853-.19.852-.19.853-.236.805-.285h-.048l-.094-.048h-.142l-.19-.047-.14-.047-.238-.095-.237-.047-.284-.094-.283-.047-.284-.096-.332-.095-.377-.096-.38-.094-.378-.142-.426-.095-.428-.095-.9-.284-.947-.237-1.042-.284-1.04-.284-1.09-.285-1.09-.332-2.273-.615-2.273-.616-1.09-.332-1.09-.284-1.088-.284-.996-.284-.994-.284-.9-.284-.426-.095-.427-.142-.426-.095-.378-.095-.38-.094-.33-.096-.332-.095-.284-.095-.284-.095-.237-.095-.236-.047-.238-.048-.142-.047-.142-.047-.142-.048H30.3z" stroke="#fff" stroke-opacity=".161" fill-opacity=".161" stroke-width=".04736"/><path d="M30.3 245.468c5.73 7.72 16.813 10.088 25.575 7.057-1.184-.284-24.01-6.583-25.574-7.057z" fill="none"/><path d="M14.956 58.874l-4.357.615-.806 102.91 67.487 18.897 1.66-5.494-64.836-17.286.852-99.643z" stroke="#fff" fill="#fcfcfc" stroke-opacity=".439" fill-opacity=".439" stroke-width=".04736"/><path d="M14.956 58.874l-4.357.615-.806 102.91 67.487 18.897 1.66-5.494-64.836-17.286.852-99.643z" fill="none"/><g stroke="#fff" stroke-opacity=".231" fill-opacity=".231"><path d="M78.607 97.045l-.095 2.89-63.46-18.282 63.555 15.392zM79.554 117.978l-.142 2.89-63.414-18.282 63.556 15.392zM78.607 137.348l-.095 2.888-63.46-18.28 63.555 15.392zM78.607 156.386l-.095 2.89-63.46-18.33 63.555 15.44z" stroke-width=".04736"/></g><path d="M15.193 61.24l63.083 15.772-.52 104.048h1.04l.52-104.427v-.426l-.377-.095-63.51-15.865-.095.52-.142.474zm63.46 15.867l-.377-.095v-.38h.52l-.142.475z" fill="#9e9e9e"/></g><path d="M1618.4-890.85v126.36h.525c-.34 1.013-.525 1.975-.525 3.018 0 15.228 36.99 27.557 82.672 27.557s82.672-12.33 82.672-27.557c0-1.045-.186-2.004-.525-3.018h.524v-126.36h-165.34z" fill="url(#b)" transform="matrix(.92355 0 0 .86378 -1414.29 896.353)"/><path transform="matrix(4.5833 0 0 4.2867 -1156.962 -2110.734)" d="M303.3 521.78c0 3.068-7.462 5.556-16.668 5.556-9.205 0-16.668-2.488-16.668-5.556s7.462-5.556 16.668-5.556c9.205 0 16.668 2.488 16.668 5.556z" fill="url(#c)"/><path d="M80.29 205.174c.572 13 34.64 23.463 76.475 23.463 41.715 0 75.593-10.4 76.35-23.35-13.385 10.648-42.5 18.022-76.35 18.022-33.92 0-63.125-7.452-76.474-18.136z" fill="#3b5d8b"/><path d="M1618.3-891.51c.62 15.05 37.507 27.164 82.804 27.164 45.168 0 81.85-12.042 82.672-27.033a42.67 42.67 0 0 1-2.887 2.232c-.04.05-.092.082-.132.13-9.625 11.664-41.587 20.21-79.654 20.21-38.306 0-70.487-8.696-79.917-20.47-.104-.076-.16-.188-.262-.264-.92-.67-1.813-1.273-2.625-1.968z" fill="url(#d)" transform="matrix(.92355 0 0 .86378 -1414.29 896.353)"/><path d="M80.29 167.012c.572 13 34.64 23.463 76.475 23.463 41.715 0 75.593-10.4 76.35-23.35-13.385 10.65-42.5 18.023-76.35 18.023-33.92 0-63.125-7.452-76.474-18.136z" fill="#3b5d8b"/><path d="M1618.3-844.36c.62 15.05 37.507 27.164 82.804 27.164 45.168 0 81.85-12.042 82.672-27.033-.21.178-.443.353-.656.526-5.216 13.55-39.937 24.014-82.016 24.014-42.466 0-77.55-10.545-82.28-24.277-.167-.133-.36-.255-.524-.394z" fill="url(#e)" transform="matrix(.92355 0 0 .86378 -1414.29 896.353)"/><path d="M1618.3-800.18c.62 15.05 37.507 27.164 82.804 27.164 45.168 0 81.85-12.042 82.672-27.033-.21.178-.443.353-.656.526-5.216 13.55-39.937 24.014-82.016 24.014-42.466 0-77.55-10.545-82.28-24.277-.167-.133-.36-.255-.524-.394z" fill="url(#f)" transform="matrix(.92355 0 0 .86378 -1414.29 896.353)"/><path d="M80.753 244.51c4.367 11.86 36.77 20.97 75.99 20.97 38.86 0 70.927-9.04 75.744-20.743-13.637 10.403-42.383 17.57-75.745 17.57-33.538 0-62.44-7.305-75.99-17.796z" fill="#3b5d8b"/></svg>