<svg xmlns:rdf="http://www.w3.org/1999/02/22-rdf-syntax-ns#" xmlns="http://www.w3.org/2000/svg" height="100%" viewBox="0 0 100 95" width="100%" version="1.1" xmlns:cc="http://creativecommons.org/ns#" xmlns:dc="http://purl.org/dc/elements/1.1/">
<g transform="translate(0 -957.36)">
<g fill-opacity=".90588" transform="matrix(.21557 0 0 .21646 -9.127 897.54)" fill="#505050">
<path d="m437.15 499.44zl-162.82-144.19-162.9 144.25v206.12c0 5.3234 4.3016 9.5938 9.625 9.5938h101.81v-90.375c0-5.3234 4.2704-9.625 9.5938-9.625h83.656c5.3234 0 9.5938 4.3016 9.5938 9.625v90.375h101.84c5.3234 0 9.5938-4.2704 9.5938-9.5938v-206.19zm-325.72 0.0625z"/>
<path d="m273.39 276.34-231.05 204.59 24.338 27.45 207.65-183.88 207.61 183.88 24.29-27.45-231-204.59l-0.89792 1.0397-0.94518-1.0397z"/>
<path d="m111.43 305.79h58.571l-0.51038 34.691-58.061 52.452v-87.143z"/>
</g>
</g>
</svg>
