<svg xmlns="http://www.w3.org/2000/svg" xmlns:xlink="http://www.w3.org/1999/xlink" viewBox="0 0 100 108"><defs><linearGradient id="a"><stop offset="0"/><stop stop-color="#FFF" offset="1"/></linearGradient><linearGradient id="b"><stop stop-color="#FFF" offset="0"/><stop stop-color="#FFF" stop-opacity="0" offset="1"/></linearGradient><linearGradient id="c"><stop stop-color="#ffe19c" offset="0"/><stop stop-color="#b79e4f" stop-opacity="0" offset="1"/></linearGradient><linearGradient id="d"><stop stop-color="#282828" offset="0"/><stop stop-color="#282828" stop-opacity="0" offset="1"/></linearGradient><linearGradient id="q" x1="29.614" spreadMethod="reflect" gradientUnits="userSpaceOnUse" y1="52.609" gradientTransform="matrix(2.1518 0 0 1.7708 -.05 4.352)" x2="44.724" y2="52.609"><stop stop-color="#a47c44" offset="0"/><stop stop-color="#baa363" offset=".75"/><stop stop-color="#d6c795" offset="1"/></linearGradient><linearGradient id="r" x1="29.094" xlink:href="#a" spreadMethod="reflect" gradientUnits="userSpaceOnUse" y1="46.357" gradientTransform="matrix(2.2188 0 0 1.826 -.05 -1.013)" x2="29.094" y2="47.296"/><linearGradient id="s" x1="24.261" xlink:href="#a" spreadMethod="reflect" gradientUnits="userSpaceOnUse" y1="44.011" gradientTransform="matrix(2.2188 0 0 1.826 -.05 -1.013)" x2="24.606" y2="45.888"/><linearGradient id="t" x1="17.682" xlink:href="#a" spreadMethod="reflect" gradientUnits="userSpaceOnUse" y1="60.434" gradientTransform="matrix(2.2188 0 0 1.826 -.05 -1.013)" x2="17.425" y2="62.78"/><radialGradient id="u" xlink:href="#b" gradientUnits="userSpaceOnUse" cy="22.546" cx="20.361" gradientTransform="matrix(.43334 0 0 1.435 6.41 -.113)" r="15.157"/><radialGradient id="v" xlink:href="#b" gradientUnits="userSpaceOnUse" cy="22.546" cx="20.361" gradientTransform="matrix(.50007 0 0 1.6752 5.003 -5.108)" r="15.157"/><radialGradient id="w" xlink:href="#b" gradientUnits="userSpaceOnUse" cy="22.546" cx="20.361" gradientTransform="matrix(.6214 0 0 1.882 2.39 -9.41)" r="15.157"/><linearGradient id="x" x1="26.974" xlink:href="#b" gradientUnits="userSpaceOnUse" y1="68.68" gradientTransform="matrix(2.136 0 0 1.826 2.35 -1.013)" x2="26.974" y2="44.981"/><linearGradient id="e" x1="35.996" xlink:href="#b" gradientUnits="userSpaceOnUse" y1="1.625" gradientTransform="matrix(1.0312 0 0 1.5448 -30.438 3.03)" x2="35.996" y2="11.711"/><linearGradient id="f" x1="38.363" xlink:href="#b" gradientUnits="userSpaceOnUse" y1="11.17" gradientTransform="matrix(1.0346 0 0 1.569 -30.438 1.748)" x2="39.724" y2="6.092"/><radialGradient id="g" xlink:href="#c" gradientUnits="userSpaceOnUse" cy="8.981" cx="21.595" gradientTransform="matrix(1.4953 0 0 1.0948 -30.66 1.748)" r="6.068"/><radialGradient id="h" xlink:href="#c" gradientUnits="userSpaceOnUse" cy="8.981" cx="21.595" gradientTransform="matrix(-1.4953 0 0 1.0948 51.178 1.685)" r="6.068"/><linearGradient id="i" x1="38.782" xlink:href="#b" gradientUnits="userSpaceOnUse" y1="9.575" gradientTransform="matrix(1.0312 0 0 1.5743 -30.438 1.748)" x2="38.782" y2="7.586"/><linearGradient id="j" x1="33.184" xlink:href="#b" gradientUnits="userSpaceOnUse" y1="24.385" gradientTransform="matrix(1.3965 0 0 1.2456 -31.363 .38)" x2="33.184" y2="-13.17"/><linearGradient id="k" x1="33.184" xlink:href="#b" gradientUnits="userSpaceOnUse" y1="24.385" gradientTransform="matrix(1.3654 0 0 1.1443 -30.438 3.194)" x2="33.184" y2="-13.17"/><radialGradient id="l" xlink:href="#c" gradientUnits="userSpaceOnUse" cy="8.981" cx="21.595" gradientTransform="matrix(1.9492 0 0 1.3018 -40.505 -.24)" r="6.068"/><radialGradient id="m" xlink:href="#c" gradientUnits="userSpaceOnUse" cy="8.981" cx="21.595" gradientTransform="matrix(-1.7984 0 0 1.324 57.75 -.518)" r="6.068"/><radialGradient id="n" xlink:href="#d" gradientUnits="userSpaceOnUse" cy="231.98" cx="8.018" gradientTransform="matrix(4.7585 0 0 .34113 -69.393 5.534)" r="7.483"/><radialGradient id="o" xlink:href="#d" gradientUnits="userSpaceOnUse" cy="231.98" cx="8.018" gradientTransform="matrix(4.7585 0 0 .42642 -66.8 -13.798)" r="7.483"/><radialGradient id="p" xlink:href="#d" gradientUnits="userSpaceOnUse" cy="231.98" cx="8.018" gradientTransform="matrix(4.7585 0 0 .34113 -61.14 7.334)" r="7.483"/></defs><g fill-rule="evenodd"><path d="M47.864 0C31.906 0 19.06 12.914 19.06 28.955v32.173h8v-32.17c0-11.587 9.278-20.914 20.804-20.914 11.525 0 20.803 9.327 20.803 20.913V61.13h8V28.957C76.668 12.915 63.822 0 47.864 0z" fill="#282828"/><path opacity=".65" d="M10.26 4.69c-11.98 0-21.62 10.342-21.62 22.138v23.798c0 8.935 5.544 16.52 13.432 19.688-5.652-2.582-9.618-8.117-9.618-14.678v-30.06c0-9.02 7.374-16.882 16.533-16.882h2.544c9.16 0 16.534 7.86 16.534 16.88v30.062c0 6.562-3.966 12.096-9.618 14.678 7.888-3.17 13.433-10.754 13.433-19.688V26.828c0-11.796-9.643-22.137-21.62-22.137z" fill="url(#e)" transform="matrix(1.2583 0 0 1.2603 34.955 -3.812)"/><path opacity=".5" d="M10.26 3.566c-12.328 0-22.054 9.895-22.252 22.182l-.276 17.094 5.63.267-1.428-18.666C-8.782 15.074-.476 6.002 8.95 6.002h2.617c9.426 0 17.635 9.065 17.015 18.442l-1.79 27.085h6.358l-.64-25.782c-.306-12.285-9.925-22.182-22.252-22.182z" fill="url(#f)" transform="matrix(1.2583 0 0 1.2603 34.955 -3.812)"/><path opacity=".8" d="M.852 9.368c-3.436 2.16-5.37 5.84-4.99 7.067.406 1.322 2.82-4.587 9.655-6.417 5.27-1.41 0-3.582-4.665-.65z" fill="url(#g)" transform="matrix(1.2583 0 0 1.2603 34.955 -3.812)"/><path opacity=".8" d="M19.666 9.304c3.436 2.16 5.37 5.84 4.99 7.068-.407 1.322-2.82-4.587-9.655-6.417-5.27-1.41 0-3.582 4.666-.65z" fill="url(#h)" transform="matrix(1.2583 0 0 1.2603 34.955 -3.812)"/><path opacity=".5" d="M10.26 5.738c-11.98 0-20.975 8.258-21.62 20.26l-.908 16.844 5.63.267-.908-18.388C-8 15.542-.173 8.12 8.986 8.12h2.544c9.16 0 16.97 7.42 16.533 16.603L26.79 51.53h6.36L31.878 26C31.28 13.99 22.236 5.737 10.258 5.737z" fill="url(#i)" transform="matrix(1.2583 0 0 1.2603 34.955 -3.812)"/><path opacity=".8" d="M10.26 4.317c-16.91 0-20.812 14.785-20.812 21.472 0 20.06 1.3 20.06 1.3 0 0-14.712 10.403-20.52 19.51-20.52 9.11 0 19.51 6.408 19.51 20.52 0 20.06 1.3 20.06 1.3 0 0-6.688-3.9-21.473-20.81-21.473z" fill="url(#j)" transform="matrix(1.2583 0 0 1.2603 34.955 -3.812)"/><path opacity=".6" d="M10.26 6.253c-16.534 0-20.35 14.14-20.35 20.284 0 18.43 1.273 18.43 1.273 0 0-13.515 10.17-19.408 19.076-19.408 8.905 0 19.075 6.443 19.075 19.407 0 18.43 1.272 18.43 1.272 0 0-6.143-3.816-20.284-20.348-20.284z" fill="url(#k)" transform="matrix(1.2583 0 0 1.2603 34.955 -3.812)"/><g fill="#FFF"><path opacity=".8" d="M26.096 11.58c-2.286 4.193 2.407 1.542 3.497.218 3.064-3.725 8.243-6.424 12.788-7.305 3.812-.738 4.394-2.218 1.255-2.463-6.26-.488-15.348 5.527-17.54 9.548z"/><path opacity=".6" d="M22.632 18.505c.242 2.05 4.185-4.633 7.29-7.77 3.79-3.833 9.536-6.515 12.3-6.87 4.928-.63 2.59-3.06-.5-2.445-11.226 2.23-19.708 11.86-19.09 17.087z"/><path opacity=".8" d="M69.505 11.55c2.302 4.186-2.4 1.552-3.495.232-3.078-3.713-8.267-6.393-12.816-7.257-3.815-.725-4.89-2.2-1.75-2.456 6.257-.512 15.854 5.467 18.06 9.48z"/><path opacity=".6" d="M72.86 18.32c-.237 2.052-4.203-4.616-7.318-7.743-3.805-3.818-9.562-6.48-12.328-6.823-4.93-.613-2.617-2.953.49-2.447C64.95 3.147 73.46 13.092 72.86 18.32z"/></g><path opacity=".4" d="M.574 8.82c-4.48 2.567-7 6.943-6.506 8.403.532 1.572 3.68-5.455 12.588-7.63 6.87-1.678 0-4.26-6.082-.774z" fill="url(#l)" transform="matrix(1.2583 0 0 1.2603 34.955 -3.812)"/><path opacity=".4" d="M19.85 8.697c4.133 2.61 6.458 7.063 6.003 8.547-.49 1.598-3.394-5.548-11.614-7.76-6.34-1.708 0-4.333 5.61-.788z" fill="url(#m)" transform="matrix(1.2583 0 0 1.2603 34.955 -3.812)"/><g><path opacity=".4" d="M4.37 84.674c0 1.41-15.943 2.553-35.61 2.553-19.666 0-35.61-1.143-35.61-2.553s15.943-2.553 35.61-2.553c19.666 0 35.61 1.144 35.61 2.554z" fill="url(#n)" transform="matrix(1.2583 0 0 1.2603 84.117 -4.197)"/><path opacity=".4" d="M6.963 85.124c0 1.762-15.942 3.19-35.61 3.19-19.666 0-35.61-1.428-35.61-3.19s15.944-3.19 35.61-3.19c19.666 0 35.61 1.428 35.61 3.19z" fill="url(#o)" transform="matrix(1.2583 0 0 1.2603 84.117 -4.197)"/><path opacity=".4" d="M12.622 86.468c0 1.41-15.943 2.553-35.61 2.553-19.666 0-35.61-1.142-35.61-2.552 0-1.41 15.943-2.553 35.61-2.553 19.666 0 35.61 1.143 35.61 2.553z" fill="url(#p)" transform="matrix(1.2583 0 0 1.2603 84.117 -4.197)"/></g><g transform="matrix(.79505 0 0 .79922 -3.097 .268)"><rect rx=".5" ry=".5" height="66.259" width="80.513" y="57.359" x="24.103" fill="url(#q)"/><rect opacity=".03" rx=".5" ry=".5" height="66.259" width="80.513" y="57.359" x="24.103" fill="url(#r)"/><rect opacity=".03" rx=".5" ry=".5" height="66.259" width="80.513" y="57.359" x="24.103" fill="url(#s)"/><rect opacity=".03" rx=".5" ry=".5" height="66.259" width="80.513" y="57.359" x="24.103" fill="url(#t)"/><path opacity=".5" d="M26.62 57.36c1.81 2.12 18.144 3.785 38.654 3.785 20.23 0 36.293-1.647 38.484-3.727-.03-.003-.025-.06-.057-.06H26.62z" fill="#FFF"/><path opacity=".403" d="M13.97 30.767c-.44 2.63-.93 19.31.697 22.88 1.592 3.493 1.393-16.667 5.274-19.84 3.922-3.207-5.554-5.52-5.97-3.04z" fill="url(#u)" transform="matrix(1.7195 0 0 1.9816 4.42 1.488)"/><path opacity=".3" d="M13.73 30.942c-.508 3.07-1.075 22.54.803 26.71 1.837 4.078 1.607-19.457 6.085-23.16 4.525-3.745-6.41-6.445-6.89-3.55z" fill="url(#v)" transform="matrix(1.7195 0 0 1.9816 4.42 1.488)"/><path opacity=".2" d="M13.232 31.092c-.63 3.45-1.335 25.325 1 30.01 2.28 4.58 1.996-21.86 7.56-26.023 5.623-4.207-7.966-7.24-8.56-3.988z" fill="url(#w)" transform="matrix(1.7195 0 0 1.9816 4.42 1.488)"/><path opacity=".403" d="M13.97 30.767c-.44 2.63-.93 19.31.697 22.88 1.592 3.493 1.393-16.667 5.274-19.84 3.922-3.207-5.554-5.52-5.97-3.04z" fill="url(#u)" transform="matrix(-1.7195 0 0 1.9816 124.3 1.488)"/><path opacity=".3" d="M13.73 30.942c-.508 3.07-1.075 22.54.803 26.71 1.837 4.078 1.607-19.457 6.085-23.16 4.525-3.745-6.41-6.445-6.89-3.55z" fill="url(#v)" transform="matrix(-1.7195 0 0 1.9816 124.3 1.488)"/><path opacity=".2" d="M13.232 31.092c-.63 3.45-1.335 25.325 1 30.01 2.28 4.58 1.996-21.86 7.56-26.023 5.623-4.207-7.966-7.24-8.56-3.988z" fill="url(#w)" transform="matrix(-1.7195 0 0 1.9816 124.3 1.488)"/><path opacity=".25" d="M103.12 114.72v7.887c0 .558-.432 1.007-.97 1.007H26.577c-.537 0-.97-.45-.97-1.007V94.592c0 29.517 77.514-20.88 77.514 20.128z" fill="url(#x)"/><path opacity=".5" d="M25.647 123.62c1.81-2.122 18.145-3.786 38.655-3.786 20.23 0 36.293 1.647 38.484 3.727-.03.004-.025.06-.057.06H25.646z"/></g></g></svg>