<svg xmlns="http://www.w3.org/2000/svg" xmlns:xlink="http://www.w3.org/1999/xlink" viewBox="0 0 100 86"><defs><linearGradient id="t" x1="17.682" xlink:href="#a" spreadMethod="reflect" gradientUnits="userSpaceOnUse" y1="60.434" gradientTransform="matrix(2.2188 0 0 1.826 -.05 -1.013)" x2="17.425" y2="62.78"/><linearGradient id="e" x1="35.996" xlink:href="#b" gradientUnits="userSpaceOnUse" y1="1.625" gradientTransform="matrix(1.632 0 0 2.436 -.05 10.593)" x2="35.996" y2="11.711"/><linearGradient id="x" x1="26.974" xlink:href="#b" gradientUnits="userSpaceOnUse" y1="68.68" gradientTransform="matrix(2.136 0 0 1.826 2.35 -1.013)" x2="26.974" y2="44.981"/><radialGradient id="o" xlink:href="#c" gradientUnits="userSpaceOnUse" cy="231.98" cx="8.018" gradientTransform="matrix(7.5313 0 0 .67244 -57.6 -15.945)" r="7.483"/><radialGradient id="p" xlink:href="#c" gradientUnits="userSpaceOnUse" cy="231.98" cx="8.018" gradientTransform="matrix(7.5313 0 0 .53795 -48.644 17.38)" r="7.483"/><radialGradient id="n" xlink:href="#c" gradientUnits="userSpaceOnUse" cy="231.98" cx="8.018" gradientTransform="matrix(7.5313 0 0 .53795 -61.705 14.54)" r="7.483"/><radialGradient id="m" xlink:href="#d" gradientUnits="userSpaceOnUse" cy="8.981" cx="21.595" gradientTransform="matrix(-2.8463 0 0 2.088 139.53 4.997)" r="6.068"/><radialGradient id="l" xlink:href="#d" gradientUnits="userSpaceOnUse" cy="8.981" cx="21.595" gradientTransform="matrix(3.085 0 0 2.053 -15.985 5.434)" r="6.068"/><linearGradient id="f" x1="38.363" xlink:href="#b" gradientUnits="userSpaceOnUse" y1="11.17" gradientTransform="matrix(1.6375 0 0 2.4742 -.05 8.57)" x2="39.724" y2="6.092"/><linearGradient id="i" x1="38.782" xlink:href="#b" gradientUnits="userSpaceOnUse" y1="9.575" gradientTransform="matrix(1.632 0 0 2.4825 -.05 8.57)" x2="38.782" y2="7.586"/><linearGradient id="j" x1="33.184" xlink:href="#b" gradientUnits="userSpaceOnUse" y1="24.385" gradientTransform="matrix(2.2102 0 0 1.9643 -1.516 6.412)" x2="33.184" y2="-13.17"/><linearGradient id="k" x1="33.184" xlink:href="#b" gradientUnits="userSpaceOnUse" y1="24.385" gradientTransform="matrix(2.161 0 0 1.8045 -.05 10.85)" x2="33.184" y2="-13.17"/><radialGradient id="h" xlink:href="#d" gradientUnits="userSpaceOnUse" cy="8.981" cx="21.595" gradientTransform="matrix(-2.3666 0 0 1.7265 129.12 8.47)" r="6.068"/><radialGradient id="g" xlink:href="#d" gradientUnits="userSpaceOnUse" cy="8.981" cx="21.595" gradientTransform="matrix(2.3666 0 0 1.7265 -.404 8.57)" r="6.068"/><radialGradient id="w" xlink:href="#b" gradientUnits="userSpaceOnUse" cy="22.546" cx="20.361" gradientTransform="matrix(.6214 0 0 1.882 2.39 -9.41)" r="15.157"/><radialGradient id="v" xlink:href="#b" gradientUnits="userSpaceOnUse" cy="22.546" cx="20.361" gradientTransform="matrix(.50007 0 0 1.6752 5.003 -5.108)" r="15.157"/><radialGradient id="u" xlink:href="#b" gradientUnits="userSpaceOnUse" cy="22.546" cx="20.361" gradientTransform="matrix(.43334 0 0 1.435 6.41 -.113)" r="15.157"/><linearGradient id="s" x1="24.261" xlink:href="#a" spreadMethod="reflect" gradientUnits="userSpaceOnUse" y1="44.011" gradientTransform="matrix(2.2188 0 0 1.826 -.05 -1.013)" x2="24.606" y2="45.888"/><linearGradient id="r" x1="29.094" xlink:href="#a" spreadMethod="reflect" gradientUnits="userSpaceOnUse" y1="46.357" gradientTransform="matrix(2.2188 0 0 1.826 -.05 -1.013)" x2="29.094" y2="47.296"/><linearGradient id="q" x1="29.614" spreadMethod="reflect" gradientUnits="userSpaceOnUse" y1="52.609" gradientTransform="matrix(2.1518 0 0 1.7708 -.05 4.352)" x2="44.724" y2="52.609"><stop stop-color="#a47c44" offset="0"/><stop stop-color="#baa363" offset=".75"/><stop stop-color="#d6c795" offset="1"/></linearGradient><linearGradient id="a"><stop offset="0"/><stop stop-color="#FFF" offset="1"/></linearGradient><linearGradient id="b"><stop stop-color="#FFF" offset="0"/><stop stop-color="#FFF" stop-opacity="0" offset="1"/></linearGradient><linearGradient id="d"><stop stop-color="#ffe19c" offset="0"/><stop stop-color="#b79e4f" stop-opacity="0" offset="1"/></linearGradient><linearGradient id="c"><stop stop-color="#282828" offset="0"/><stop stop-color="#282828" stop-opacity="0" offset="1"/></linearGradient></defs><g fill-rule="evenodd"><path d="M77.107-.002c-12.682 0-22.89 10.247-22.89 22.976v25.528h6.357V22.974c0-9.193 7.374-16.594 16.533-16.594 9.16 0 16.533 7.4 16.533 16.594v25.528H100V22.974C100 10.244 89.79-.002 77.106-.002z" fill="#282828"/><path opacity=".65" d="M64.36 13.212c-18.958 0-34.22 16.307-34.22 34.91v37.527c0 14.088 8.777 26.05 21.26 31.046-8.944-4.073-15.22-12.8-15.22-23.147V46.144c0-14.225 11.67-26.62 26.166-26.62h4.026c14.496 0 26.167 12.395 26.167 26.62V93.55c0 10.346-6.278 19.073-15.223 23.146 12.484-4.998 21.26-16.958 21.26-31.047V48.12c0-18.6-15.26-34.908-34.218-34.908z" fill="url(#e)" transform="matrix(.63183 0 0 .63414 36.443 -6.713)"/><path opacity=".5" d="M64.36 11.437c-19.51 0-34.904 15.604-35.218 34.98l-.437 26.957 8.91.42-2.258-29.434c-1.133-14.776 12.01-29.082 26.93-29.082h4.143c14.92 0 27.91 14.295 26.93 29.082l-2.834 42.71h10.064l-1.015-40.653c-.484-19.373-15.707-34.98-35.217-34.98z" fill="url(#f)" transform="matrix(.63183 0 0 .63414 36.443 -6.713)"/><path opacity=".8" d="M49.47 20.586c-5.437 3.405-8.498 9.21-7.9 11.145.647 2.086 4.468-7.233 15.284-10.118 8.34-2.225 0-5.65-7.383-1.026z" fill="url(#g)" transform="matrix(.63183 0 0 .63414 36.443 -6.713)"/><path opacity=".8" d="M79.248 20.486c5.438 3.405 8.5 9.21 7.9 11.145-.646 2.086-4.467-7.233-15.283-10.118-8.34-2.225 0-5.65 7.383-1.026z" fill="url(#h)" transform="matrix(.63183 0 0 .63414 36.443 -6.713)"/><path opacity=".5" d="M64.36 14.862c-18.958 0-33.196 13.022-34.22 31.95l-1.435 26.562 8.91.42L36.18 44.8c-.718-14.478 11.67-26.182 26.166-26.182h4.026c14.496 0 26.856 11.702 26.167 26.182l-2.014 42.27h10.064l-2.013-40.257c-.947-18.934-15.26-31.95-34.218-31.95z" fill="url(#i)" transform="matrix(.63183 0 0 .63414 36.443 -6.713)"/><path opacity=".8" d="M64.36 12.622c-26.763 0-32.938 23.315-32.938 33.86 0 31.634 2.06 31.634 2.06 0 0-23.2 16.462-32.355 30.878-32.355S95.24 24.23 95.24 46.482c0 31.634 2.057 31.634 2.057 0 0-10.545-6.176-33.86-32.937-33.86z" fill="url(#j)" transform="matrix(.63183 0 0 .63414 36.443 -6.713)"/><path opacity=".6" d="M64.36 15.674c-26.168 0-32.206 22.3-32.206 31.987 0 29.063 2.013 29.063 2.013 0 0-21.31 16.097-30.604 30.192-30.604 14.095 0 30.19 10.162 30.19 30.605 0 29.063 2.014 29.063 2.014 0 0-9.686-6.04-31.986-32.205-31.986z" fill="url(#k)" transform="matrix(.63183 0 0 .63414 36.443 -6.713)"/><g fill="#FFF"><path opacity=".8" d="M59.808 9.186c-1.817 3.328 1.913 1.224 2.78.173 2.434-2.955 6.55-5.097 10.162-5.796 3.03-.586 3.49-1.76.997-1.954-4.974-.388-12.197 4.385-13.94 7.576z"/><path opacity=".6" d="M57.055 14.682c.193 1.627 3.326-3.676 5.793-6.166 3.012-3.04 7.58-5.17 9.776-5.45 3.916-.5 2.057-2.427-.397-1.94-8.922 1.768-15.663 9.41-15.172 13.557z"/><path opacity=".8" d="M94.306 9.163c1.83 3.32-1.908 1.23-2.778.184-2.446-2.946-6.57-5.072-10.185-5.758-3.03-.576-3.884-1.746-1.39-1.95 4.972-.406 12.6 4.34 14.353 7.523z"/><path opacity=".6" d="M96.97 14.536c-.186 1.627-3.338-3.665-5.814-6.145-3.024-3.028-7.598-5.14-9.797-5.413-3.92-.487-2.08-2.343.39-1.942 8.935 1.46 15.697 9.35 15.22 13.5z"/></g><path opacity=".4" d="M49.032 19.72c-7.09 4.05-11.08 10.952-10.298 13.253.842 2.48 5.823-8.6 19.923-12.032 10.873-2.645 0-6.716-9.625-1.22z" fill="url(#l)" transform="matrix(.63183 0 0 .63414 36.443 -6.713)"/><path opacity=".4" d="M79.54 19.528c6.54 4.118 10.22 11.138 9.5 13.478-.776 2.52-5.37-8.748-18.38-12.238-10.03-2.69 0-6.83 8.88-1.24z" fill="url(#m)" transform="matrix(.63183 0 0 .63414 36.443 -6.713)"/><path opacity=".4" d="M55.04 139.34c0 2.223-25.234 4.026-56.36 4.026s-56.36-1.803-56.36-4.026 25.234-4.026 56.36-4.026 56.36 1.803 56.36 4.026z" fill="url(#n)" transform="matrix(.63183 0 0 .63414 36.443 -6.713)"/><path opacity=".4" d="M59.144 140.05c0 2.78-25.233 5.032-56.36 5.032s-56.358-2.253-56.358-5.032c0-2.78 25.233-5.032 56.36-5.032s56.358 2.253 56.358 5.032z" fill="url(#o)" transform="matrix(.63183 0 0 .63414 36.443 -6.713)"/><path opacity=".4" d="M68.1 142.17c0 2.223-25.233 4.026-56.36 4.026s-56.358-1.803-56.358-4.026 25.233-4.026 56.36-4.026S68.1 139.947 68.1 142.17z" fill="url(#p)" transform="matrix(.63183 0 0 .63414 36.443 -6.713)"/><g transform="matrix(.63183 0 0 .63414 -2.225 3.463)"><rect rx=".5" ry=".5" height="66.259" width="80.513" y="57.359" x="24.103" fill="url(#q)"/><rect opacity=".03" rx=".5" ry=".5" height="66.259" width="80.513" y="57.359" x="24.103" fill="url(#r)"/><rect opacity=".03" rx=".5" ry=".5" height="66.259" width="80.513" y="57.359" x="24.103" fill="url(#s)"/><rect opacity=".03" rx=".5" ry=".5" height="66.259" width="80.513" y="57.359" x="24.103" fill="url(#t)"/><path opacity=".5" d="M26.62 57.36c1.81 2.12 18.144 3.785 38.654 3.785 20.23 0 36.293-1.647 38.484-3.727-.03-.003-.025-.06-.057-.06H26.62z" fill="#FFF"/><path opacity=".403" d="M13.97 30.767c-.44 2.63-.93 19.31.697 22.88 1.592 3.493 1.393-16.667 5.274-19.84 3.922-3.207-5.554-5.52-5.97-3.04z" fill="url(#u)" transform="matrix(1.7195 0 0 1.9816 4.42 1.488)"/><path opacity=".3" d="M13.73 30.942c-.508 3.07-1.075 22.54.803 26.71 1.837 4.078 1.607-19.457 6.085-23.16 4.525-3.745-6.41-6.445-6.89-3.55z" fill="url(#v)" transform="matrix(1.7195 0 0 1.9816 4.42 1.488)"/><path opacity=".2" d="M13.232 31.092c-.63 3.45-1.335 25.325 1 30.01 2.28 4.58 1.996-21.86 7.56-26.023 5.623-4.207-7.966-7.24-8.56-3.988z" fill="url(#w)" transform="matrix(1.7195 0 0 1.9816 4.42 1.488)"/><path opacity=".403" d="M13.97 30.767c-.44 2.63-.93 19.31.697 22.88 1.592 3.493 1.393-16.667 5.274-19.84 3.922-3.207-5.554-5.52-5.97-3.04z" fill="url(#u)" transform="matrix(-1.7195 0 0 1.9816 124.3 1.488)"/><path opacity=".3" d="M13.73 30.942c-.508 3.07-1.075 22.54.803 26.71 1.837 4.078 1.607-19.457 6.085-23.16 4.525-3.745-6.41-6.445-6.89-3.55z" fill="url(#v)" transform="matrix(-1.7195 0 0 1.9816 124.3 1.488)"/><path opacity=".2" d="M13.232 31.092c-.63 3.45-1.335 25.325 1 30.01 2.28 4.58 1.996-21.86 7.56-26.023 5.623-4.207-7.966-7.24-8.56-3.988z" fill="url(#w)" transform="matrix(-1.7195 0 0 1.9816 124.3 1.488)"/><path opacity=".25" d="M103.12 114.72v7.887c0 .558-.432 1.007-.97 1.007H26.577c-.537 0-.97-.45-.97-1.007V94.592c0 29.517 77.514-20.88 77.514 20.128z" fill="url(#x)"/><path opacity=".5" d="M25.647 123.62c1.81-2.122 18.145-3.786 38.655-3.786 20.23 0 36.293 1.647 38.484 3.727-.03.004-.025.06-.057.06H25.646z"/></g></g></svg>