<svg xmlns="http://www.w3.org/2000/svg" viewBox="0 0 64 58.249732"><defs><filter id="a" height="1.242" width="1.08" y="-.121" x="-.04" color-interpolation-filters="sRGB"><feGaussianBlur stdDeviation="11.869"/></filter></defs><path filter="url(#a)" d="M169.86 507.87c-20.785 77.13-51.8 144.5-72.654 221.61 2.102 4.674 8.867 1.05 12.72 2.188 233.25-.083 466.56.166 699.78-.125 4.296-2.586-1.122-8.655-1.01-12.49-20.23-74.16-48.44-142.55-68.69-216.7-196.02 0-373.71 4.035-569.73 4.035l-.27.96z" transform="matrix(.083 0 0 .083 -5.704 -4.862)"/><path d="M56.25 36.52l5.225 19.143c.005.02-.02.037-.044.037H2.59c-.026 0-.05-.017-.045-.037l5.15-19.143z" fill="#dcd3ba"/><path opacity=".486" d="M54.615 55.516c0-.092-.276-.35-.42-.392-.193-.057-.766-.4-.766-.46 0-.025-.034-.047-.075-.048-.22-.008-.85-.77-.99-1.2-.054-.165-.132-.254-.302-.34-.127-.065-.272-.118-.323-.118-.05 0-.23-.073-.402-.164s-.47-.213-.666-.273c-.557-.17-.832-.323-1.22-.683-.278-.258-.386-.41-.472-.66a2.35 2.35 0 0 1-.114-.418c0-.053-.08-.202-.173-.33s-.188-.295-.21-.366c-.024-.07-.067-.13-.097-.13s-.056-.05-.056-.116c0-.158-.56-.692-.89-.847-.146-.068-.287-.16-.313-.203-.026-.042-.146-.077-.267-.077-.384 0-1.73-.408-1.73-.524 0-.026-.08-.137-.178-.246s-.194-.252-.215-.318c-.02-.066-.142-.29-.268-.496-.223-.363-.23-.39-.23-.922-.002-.505-.062-.81-.21-1.06-.03-.056-.27-.204-.53-.33-.262-.127-.55-.28-.643-.34-.14-.093-.34-.12-1.216-.155-1.107-.046-1.63-.154-1.976-.41a.688.688 0 0 0-.212-.12c-.028 0-.084-.094-.125-.208s-.113-.208-.16-.208-.085-.026-.085-.058c0-.076-.648-.713-.726-.713-.05 0-.703-.31-1.082-.518a2.367 2.367 0 0 0-.475-.133c-.397-.076-.857-.28-.903-.398-.016-.042-.06-.077-.097-.077-.116 0-.373-.375-.417-.608-.023-.124-.044-.655-.046-1.182-.005-.943-.007-.96-.17-1.22-.093-.144-.283-.38-.424-.522s-.383-.39-.538-.55-.4-.402-.547-.536l-.232-.32H56.25l2.582 9.562a635.93 635.93 0 0 1 2.48 9.47c0 .01-1.505.016-3.348.016s-3.35-.023-3.35-.05z" fill="#89d375"/><path d="M43.22 36.52h3.735l.825 19.18h-5.395z" fill="#f7fd9f"/><g fill="#FFF"><path d="M59.153 46.895l.83 3.32H11.016l.83-2.905z"/><path d="M12.676 36.52h3.32l-2.994 13.7h-4.15z"/></g><path d="M56.25 36.52l5.225 19.143c.005.02-.02.037-.044.037H2.59c-.026 0-.05-.017-.045-.037l5.15-19.143z" fill="none"/><path opacity=".8" d="M56.25 36.52l5.225 19.143c.005.02-.02.037-.044.037H2.59c-.026 0-.05-.017-.045-.037l5.15-19.143z" stroke="#000" stroke-width=".8300000000000001" fill="none"/><path stroke="#000" stroke-width=".862951" d="M31.82.432c-8.26 0-14.926 6.674-14.926 14.906 0 2.59.662 5.024 1.82 7.146L31.82 44.422l13.103-21.938a14.86 14.86 0 0 0 1.82-7.146C46.744 7.106 40.078.432 31.82.432zm-.167 8.663c.055-.002.11 0 .166 0a6.458 6.458 0 1 1-6.46 6.458 6.46 6.46 0 0 1 6.293-6.458z" fill="#e52626"/></svg>