<svg xmlns="http://www.w3.org/2000/svg" viewBox="0 0 87.993149 183.88908" height="183.89" width="87.993"><path d="M16.743 182.8c-2.064-.548-5.96-2.982-8.66-5.408-8.36-7.515-8.088-5.04-8.08-73.816.003-40.733.36-61.368 1.11-64.08C2.738 33.6 11.347 25.283 16.71 24.426l4.106-.657.34-9.785c.402-11.545 1.772-13.99 7.84-13.99 5.92 0 7 2.035 7 13.192v9.535l17.25.48c14.92.417 17.8.763 21.32 2.565 5.348 2.74 11.034 9.137 12.36 13.907.692 2.497 1.062 24.628 1.065 63.893.008 68.744.274 66.306-8.05 73.79-3.082 2.77-6.524 4.798-9.353 5.51-5.55 1.398-48.524 1.337-53.844-.076zm61.054-96c1.268-1.268 1.803-42.065.593-45.218-.537-1.4-4.463-1.582-33.893-1.582s-33.357.183-33.893 1.582c-1.21 3.153-.675 43.95.593 45.218 1.717 1.717 64.883 1.717 66.6 0z"/></svg>