<svg xmlns:rdf="http://www.w3.org/1999/02/22-rdf-syntax-ns#" xmlns="http://www.w3.org/2000/svg" viewBox="0 0 87.993149 183.88908" height="183.89" width="87.993" version="1.1" xmlns:cc="http://creativecommons.org/ns#" xmlns:dc="http://purl.org/dc/elements/1.1/">
<path d="m16.743 182.8c-2.0642-0.54821-5.9612-2.982-8.66-5.4084-8.3586-7.5151-8.0876-5.0402-8.0812-73.816 0.0039803-40.733 0.36134-61.368 1.1098-64.08 1.6275-5.896 10.236-14.213 15.599-15.07l4.105-0.65642 0.34016-9.784c0.402-11.545 1.772-13.99 7.841-13.99 5.9205 0 7 2.0344 7 13.192v9.5348l17.25 0.48076c14.918 0.41576 17.8 0.76243 21.318 2.5641 5.3488 2.7391 11.035 9.1375 12.36 13.907 0.69348 2.4974 1.0629 24.628 1.0666 63.893 0.0064 68.744 0.27247 66.306-8.0512 73.789-3.082 2.771-6.5241 4.7995-9.3528 5.5118-5.5489 1.3972-48.524 1.3363-53.844-0.0764zm61.054-96c1.268-1.268 1.803-42.065 0.593-45.218-0.537-1.399-4.463-1.582-33.893-1.582s-33.357 0.183-33.893 1.582c-1.2104 3.153-0.6753 43.95 0.593 45.218 1.717 1.717 64.883 1.717 66.6 0z"/>
</svg>
