<svg xmlns="http://www.w3.org/2000/svg" viewBox="0 0 100 94.45"><path d="M47.344 0c-9.953.208-14 1.83-14 13.906v2.75H100v-2.75C100 .016 94.677 0 81.344 0h-34zm-14 16.688V66.28c-3.53-3.1-8.45-5.03-13.906-5.03C8.698 61.25 0 68.702 0 77.906c0 9.205 8.7 16.656 19.438 16.656s19.437-7.45 19.437-16.656c0-.287.017-.56 0-.844v-49.28h55.563V66.25c-3.53-3.084-8.437-5-13.876-5-10.738 0-19.437 7.452-19.437 16.656 0 9.205 8.7 16.656 19.437 16.656 10.74 0 19.438-7.45 19.438-16.656V16.688h-5.562v5.53H38.875v-5.53h-5.53z" fill="#333" color="#000"/></svg>