<svg xmlns="http://www.w3.org/2000/svg" xmlns:xlink="http://www.w3.org/1999/xlink" viewBox="0 0 48 48"><defs><radialGradient id="j" xlink:href="#a" gradientUnits="userSpaceOnUse" cy="486.65" cx="605.71" gradientTransform="matrix(-2.7744 0 0 1.9697 112.76 -872.89)" r="117.14"/><linearGradient id="a"><stop offset="0"/><stop stop-opacity="0" offset="1"/></linearGradient><radialGradient id="i" xlink:href="#a" gradientUnits="userSpaceOnUse" cy="486.65" cx="605.71" gradientTransform="matrix(2.7744 0 0 1.9697 -1891.6 -872.89)" r="117.14"/><linearGradient id="h" x1="302.86" gradientUnits="userSpaceOnUse" y1="366.65" gradientTransform="matrix(2.7744 0 0 1.9697 -1892.2 -872.89)" x2="302.86" y2="609.51"><stop stop-opacity="0" offset="0"/><stop offset=".5"/><stop stop-opacity="0" offset="1"/></linearGradient><linearGradient id="b"><stop stop-color="#474747" stop-opacity="0" offset="0"/><stop stop-color="#474747" offset=".1"/><stop stop-color="#474747" offset=".9"/><stop stop-color="#474747" stop-opacity="0" offset="1"/></linearGradient><linearGradient id="c"><stop stop-color="#fff" offset="0"/><stop stop-color="#fff" stop-opacity="0" offset="1"/></linearGradient><linearGradient id="d" x1="1.642" gradientUnits="userSpaceOnUse" x2="15.343" gradientTransform="matrix(2.7402 0 0 .36494 31.378 -10.353)" y1="117.83" y2="117.83"><stop stop-color="#686868" stop-opacity="0" offset="0"/><stop stop-color="#686868" offset=".238"/><stop stop-color="#686868" offset=".781"/><stop stop-color="#686868" stop-opacity="0" offset="1"/></linearGradient><linearGradient id="e" x1=".612" xlink:href="#b" gradientUnits="userSpaceOnUse" x2="5.086" gradientTransform="matrix(8.1686 0 0 .2212 31.378 -48.274)" y1="372.58" y2="372.58"/><linearGradient id="f" x1=".612" xlink:href="#b" gradientUnits="userSpaceOnUse" x2="5.086" gradientTransform="matrix(8.1686 0 0 .22862 31.378 -46.267)" y1="372.58" y2="372.58"/><linearGradient id="g" x1="1.642" gradientUnits="userSpaceOnUse" x2="15.343" gradientTransform="matrix(2.7402 0 0 .14768 31.378 14.833)" y1="117.83" y2="117.83"><stop stop-color="#fff" stop-opacity="0" offset="0"/><stop stop-color="#fff" stop-opacity=".707" offset=".108"/><stop stop-color="#fff" stop-opacity=".707" offset=".921"/><stop stop-color="#fff" stop-opacity="0" offset="1"/></linearGradient><linearGradient id="k" x1="24.35" gradientUnits="userSpaceOnUse" y1="34.464" gradientTransform="translate(0 .404)" x2="23.234" y2="10.018"><stop stop-color="#d2d2d2" offset="0"/><stop stop-color="#dfdfdf" offset="1"/></linearGradient><linearGradient id="l" x1="27.325" gradientUnits="userSpaceOnUse" y1="26.888" gradientTransform="matrix(.95593 0 0 1 .87 0)" x2="22.312" y2="26.787"><stop stop-color="#fff" offset="0"/><stop stop-color="#fff" stop-opacity="0" offset="1"/></linearGradient><linearGradient id="m" x1="16.364" xlink:href="#c" gradientUnits="userSpaceOnUse" y1="39.919" gradientTransform="translate(2.707)" x2="16.364" y2="30.928"/><linearGradient id="n" x1="16.364" xlink:href="#c" gradientUnits="userSpaceOnUse" y1="39.919" gradientTransform="translate(4.707)" x2="16.364" y2="30.928"/><linearGradient id="o" x1="16.364" xlink:href="#c" gradientUnits="userSpaceOnUse" y1="39.919" gradientTransform="translate(6.707)" x2="16.364" y2="30.928"/><linearGradient id="p" x1="16.364" xlink:href="#c" gradientUnits="userSpaceOnUse" y1="39.919" gradientTransform="translate(8.707)" x2="16.364" y2="30.928"/><linearGradient id="q" x1="16.364" xlink:href="#c" gradientUnits="userSpaceOnUse" y1="39.919" gradientTransform="translate(10.707)" x2="16.364" y2="30.928"/><linearGradient id="r" x1="16.364" xlink:href="#c" gradientUnits="userSpaceOnUse" y1="39.919" gradientTransform="translate(12.707)" x2="16.364" y2="30.928"/><linearGradient id="s" x1="16.364" xlink:href="#a" gradientUnits="userSpaceOnUse" y1="39.919" gradientTransform="translate(1.616)" x2="16.364" y2="30.928"/><linearGradient id="t" x1="16.364" xlink:href="#a" gradientUnits="userSpaceOnUse" y1="39.919" gradientTransform="translate(3.616)" x2="16.364" y2="30.928"/><linearGradient id="u" x1="16.364" xlink:href="#a" gradientUnits="userSpaceOnUse" y1="39.919" gradientTransform="translate(5.616)" x2="16.364" y2="30.928"/><linearGradient id="v" x1="16.364" xlink:href="#a" gradientUnits="userSpaceOnUse" y1="39.919" gradientTransform="translate(7.616)" x2="16.364" y2="30.928"/><linearGradient id="w" x1="16.364" xlink:href="#a" gradientUnits="userSpaceOnUse" y1="39.919" gradientTransform="translate(9.616)" x2="16.364" y2="30.928"/><linearGradient id="x" x1="16.364" xlink:href="#a" gradientUnits="userSpaceOnUse" y1="39.919" gradientTransform="translate(11.616)" x2="16.364" y2="30.928"/></defs><g opacity=".634" color="#000"><path display="block" fill="url(#d)" d="M36.378 30.647H72.92v4H36.38z" transform="matrix(1.2588 0 0 .6903 -44.793 2.083)"/><path display="block" fill="url(#e)" d="M36.378 33.65H72.92v.99H36.38z" transform="matrix(1.2588 0 0 .6903 -44.793 2.083)"/><path display="block" fill="url(#f)" d="M36.378 30.3H72.92v1.024H36.38z" transform="matrix(1.2588 0 0 .6903 -44.793 2.083)"/><path display="block" fill="url(#g)" d="M36.378 31.425H72.92v1.62H36.38z" transform="matrix(1.2588 0 0 .6903 -44.793 2.083)"/></g><path d="M36.5 24.5a2 2 0 1 1-4 0 2 2 0 1 1 4 0z" fill-rule="evenodd" stroke="#8a8a8a" stroke-width="1.0000756800000001" fill="#eaeaea" color="#000"/><g color="#000"><path opacity=".402" fill="url(#h)" d="M-1559.3-150.7h1339.6v478.36h-1339.6z" transform="matrix(.0142 0 0 .02087 36.543 39.163)"/><path opacity=".402" fill="url(#i)" d="M-219.62-150.68v478.33c142.88.9 345.4-107.17 345.4-239.2 0-132.02-159.44-239.13-345.4-239.13z" transform="matrix(.0142 0 0 .02087 36.543 39.163)"/><path opacity=".402" fill="url(#j)" d="M-1559.3-150.68v478.33c-142.8.9-345.4-107.17-345.4-239.2 0-132.02 159.5-239.13 345.4-239.13z" transform="matrix(.0142 0 0 .02087 36.543 39.163)"/></g><g fill-rule="evenodd"><path stroke-linejoin="round" d="M12.467 7.998v33.537H34.43V7.795l-4.042-4.242H16.305l-3.838 4.445z" transform="matrix(1.0017 0 0 1.0005 .012 .945)" stroke="#5e5e5e" stroke-linecap="round" stroke-width=".999" fill="url(#k)"/><path d="M16.55 5L13 10h21l-3.846-4.853L16.55 5z" fill-opacity=".655" fill="#fff"/><path opacity=".349" transform="matrix(1.0256 0 0 .9428 -.872 1.354)" stroke="#fff" stroke-width="1.017" fill="#fff" color="#000" d="M16.45 11.29h15.602v4.244h-15.6z"/></g><path d="M13.465 8.622v31.78h19.823V8.44l-3.67-3.856H16.95l-3.487 4.038z" transform="matrix(1.009 0 0 1.005 -.086 .893)" stroke="#fff" stroke-width=".993" fill="none"/><g fill-rule="evenodd" color="#000"><path opacity=".526" transform="matrix(1.0094 0 0 .79336 -.745 6.31)" stroke="url(#l)" stroke-width="1.117" fill="url(#l)" d="M21.542 23.56H32.44v5.04H21.54z"/><path transform="matrix(1.0527 0 0 .9428 -1.366 2.388)" stroke="#acacac" stroke-width="1.004" fill="#c8c8c8" d="M20.77 23.453h10.45v4.243H20.77z"/><path opacity=".349" transform="matrix(1.0256 0 0 .9428 -.872 1.698)" stroke="#fff" stroke-width="1.017" fill="#fff" d="M16.45 17.29h15.602v4.244h-15.6z"/><path transform="matrix(1.0132 0 0 .9428 -.152 2.055)" stroke="#acacac" stroke-width="1.023" fill="#c8c8c8" d="M15.447 16.382h15.79v4.243h-15.79z"/><path transform="matrix(1.0132 0 0 .9428 -.152 1.712)" stroke="#acacac" stroke-width="1.023" fill="#c8c8c8" d="M15.447 10.382h15.79v4.243h-15.79z"/><path d="M68.185 26.23a2.172 2.172 0 1 1-4.343 0 2.172 2.172 0 1 1 4.343 0z" transform="translate(-28.598 8.88) scale(.69074)" stroke="#979797" stroke-width="1.448" fill="#c8c8c8"/><path fill="#fff" d="M16.955 26.685a.452.452 0 1 1-.903 0 .452.452 0 1 1 .903 0z"/><path transform="translate(.12 1.482) scale(.98995)" fill="url(#m)" d="M19.072 29.817h1.01V39.92h-1.01z"/><path transform="translate(.14 1.482) scale(.98995)" fill="url(#n)" d="M21.072 29.817h1.01V39.92h-1.01z"/><path transform="translate(.16 1.482) scale(.98995)" fill="url(#o)" d="M23.072 29.817h1.01V39.92h-1.01z"/><path transform="translate(.18 1.482) scale(.98995)" fill="url(#p)" d="M25.072 29.817h1.01V39.92h-1.01z"/><path transform="translate(.2 1.482) scale(.98995)" fill="url(#q)" d="M27.072 29.817h1.01V39.92h-1.01z"/><path opacity=".543" transform="translate(.22 1.482) scale(.98995)" fill="url(#r)" d="M29.072 29.817h1.01V39.92h-1.01z"/><path opacity=".16" transform="translate(.2 1.482) scale(.98995)" fill="url(#s)" d="M17.98 29.817h1.01V39.92h-1.01z"/><path opacity=".291" transform="translate(.22 1.482) scale(.98995)" fill="url(#t)" d="M19.98 29.817h1.01V39.92h-1.01z"/><path opacity=".291" transform="translate(.24 1.482) scale(.98995)" fill="url(#u)" d="M21.98 29.817h1.01V39.92h-1.01z"/><path opacity=".291" transform="translate(.26 1.482) scale(.98995)" fill="url(#v)" d="M23.98 29.817h1.01V39.92h-1.01z"/><path opacity=".291" transform="translate(.28 1.482) scale(.98995)" fill="url(#w)" d="M25.98 29.817h1.01V39.92h-1.01z"/><path opacity=".229" transform="translate(.3 1.482) scale(.98995)" fill="url(#x)" d="M27.98 29.817h1.01V39.92h-1.01z"/></g></svg>