<svg xmlns="http://www.w3.org/2000/svg" viewBox="0 0 66.666664 100"><path d="M66.657 50l.01.01V50h-.01zm-27.9-23.857c-3.69-4.13-7.22-8.438-10.6-12.933S21.79 4.31 19.21 0H0c2.586 4.31 5.752 8.962 9.5 13.948a284.43 284.43 0 0 0 11.914 14.78c4.205 4.867 8.467 9.39 12.8 13.58A129.368 129.368 0 0 0 42.857 50a132.24 132.24 0 0 0-8.643 7.695 209.65 209.65 0 0 0-12.8 13.58A286.455 286.455 0 0 0 9.5 86.058C5.752 91.047 2.586 95.69 0 100h19.21c2.58-4.31 5.56-8.71 8.942-13.205s6.91-8.81 10.6-12.938c3.69-4.124 7.438-7.91 11.243-11.357 3.276-2.957 12.053-9.28 16.657-12.5-4.604-3.214-13.38-9.533-16.657-12.495-3.8-3.448-7.547-7.234-11.238-11.362z" fill="#333"/></svg>