<svg xmlns="http://www.w3.org/2000/svg" viewBox="0 0 90 85"><g fill="#333"><path d="M29.986-.003c-17.49 0-19.99 7.047-19.99 21.132v2.347c0 10.406 11.185 31.535 20.006 31.535 8.822 0 19.973-21.13 19.973-31.535V21.13c0-14.086-2.5-21.133-19.99-21.133z"/><path d="M15.313 50.047C3.08 50.297 0 52.422 0 66.547v12.188c0 6.253 1.99 6.25 7.97 6.25h44.06c6 0 7.97 0 7.97-6.094V66.548c0-14.147-3.143-15.982-15.47-16.25-1.334 1.787-2.685 3.565-4.218 5C37.508 57.925 34.245 60.14 30 60.14s-7.68-2.21-10.47-4.843c-1.602-1.513-2.874-3.418-4.218-5.312zM69.873 14.997C56.8 14.997 54.93 19.99 54.93 29.97v1.663c0 7.372 8.36 22.344 14.954 22.344 6.593 0 14.93-14.972 14.93-22.344V29.97c0-9.98-1.868-14.973-14.943-14.973z"/><path d="M82.344 50.672c-1.194 1.658-2.432 3.222-3.906 4.532-2.2 1.955-4.954 3.593-8.438 3.593-2.27 0-4.24-.693-5.938-1.718.58 2.738.782 5.933.782 9.53v8.437h19.53c4.208 0 5.626-.062 5.626-4.375v-8.75c0-8.622-1.708-10.69-7.656-11.25z"/></g></svg>