<svg xmlns="http://www.w3.org/2000/svg" viewBox="0 0 90 80"><g fill="#333"><path d="M21.562 10.03C3.857 10.3 0 12.53 0 30.02v29.99C0 80 5 80 30 80h30c25 0 30 0 30-19.99V30.02c0-19.992-5-19.992-30-19.992H30c-3.125 0-5.908-.04-8.438 0zM52.5 15.028c15.188 0 27.5 12.308 27.5 27.49s-12.312 27.49-27.5 27.49S25 57.7 25 42.518s12.312-27.49 27.5-27.49z" color="#000"/><path d="M40.94.03a6.207 6.207 0 0 0-3.125 1.718L30 9.558c-1.41 1.4-2.073 3.512-1.72 5.467h48.44c.353-1.955-.31-4.066-1.72-5.467l-7.812-7.81A6.24 6.24 0 0 0 62.813.03H42.188a6.525 6.525 0 0 0-1.25 0z"/><path d="M52.5 22.52c-11.046 0-20 8.95-20 19.993s8.954 19.992 20 19.992 20-8.95 20-19.992c0-11.042-8.954-19.993-20-19.993zm-5 9.996a5 5 0 1 1-5 4.998 5 5 0 0 1 5-4.998z" color="#000"/></g></svg>