<svg xmlns="http://www.w3.org/2000/svg" viewBox="0 0 100 100"><path d="M50 0C22.383 0 0 22.383 0 50s22.383 50 50 50 50-22.383 50-50S77.617 0 50 0zm0 11.11c21.478 0 38.89 17.412 38.89 38.89S71.477 88.89 50 88.89 11.11 71.477 11.11 50 28.523 11.11 50 11.11z" fill="#4d4d4d"/><path d="M39.033 68.04c1.894-.95 4.01-2.118 6.344-3.495a164.102 164.102 0 0 0 7.184-4.528c2.462-1.645 4.9-3.328 7.312-5.05s4.705-3.406 6.86-5.045a223.81 223.81 0 0 0-6.927-5.05 232.485 232.485 0 0 0-7.378-4.977 196.8 196.8 0 0 0-7.183-4.467c-2.333-1.383-4.4-2.55-6.21-3.5v36.11z" fill="#4d4d4d"/></svg>