<svg xmlns:rdf="http://www.w3.org/1999/02/22-rdf-syntax-ns#" xmlns="http://www.w3.org/2000/svg" height="70.098" width="74.38" version="1.1" xmlns:cc="http://creativecommons.org/ns#" xmlns:dc="http://purl.org/dc/elements/1.1/" viewBox="0 0 74.380089 70.097618">
<g transform="translate(-189.23 -412.41)">
<g transform="matrix(.21739 0 0 .21739 467.26 406.4)">
<g opacity=".85959" transform="matrix(.80532 -.21956 .22613 .78193 -1357.7 29.989)" stroke="#d9d9d9" fill="#fff">
<path stroke-width="2.868pt" d="m126.59 127.79v99.156c-0.2722 3.1296-2.5349 21.218-20.438 17.75-19.515-3.7798-6.4998-35.886-34.688-22.656-9.207 7.6759-14.275 20.979-15.969 34.094-0.02646 0.20482-0.06894 0.42031-0.09375 0.625-0.9667 4.612-1.4566 9.889-1.25 15.5 0.55954 15.199 5.6533 32.249 16.562 41.344 28.188 13.229 15.173-18.908 34.688-22.688 19.515-3.7798 20.594 18.906 20.594 18.906l0.59375 97.719h101.59c6.2012 1.2183 18.241 5.4891 15.406 20.125-3.7798 19.515-35.886 6.4998-22.656 34.688 7.6759 9.207 20.979 14.275 34.094 15.969 0.20482 0.0265 0.42031 0.0689 0.625 0.0937 4.612 0.96671 9.889 1.4566 15.5 1.25 15.199-0.55953 32.249-5.6533 41.344-16.562 13.229-28.188-18.908-15.173-22.688-34.688-3.7798-19.515 18.906-20.594 18.906-20.594l97.188-0.28125s-0.62501-98.25-0.625-98.25c0 0-1.0792-22.686-20.594-18.906-19.515 3.7798-6.4998 35.917-34.688 22.688-10.909-9.0951-16.003-26.144-16.562-41.344-0.20656-5.611 0.28329-10.888 1.25-15.5 0.0248-0.20469 0.0673-0.42019 0.0937-0.625 1.6939-13.114 6.7618-26.418 15.969-34.094 5.2852-2.4805 9.1258-3.3791 12-3.1562 12.455 0.96571 6.8319 22.741 22.688 25.812 18.208 3.5267 20.261-15.34 20.469-17.969v-98.406l-97.344 0.71875s-22.686 1.0792-18.906 20.594c3.7798 19.515 35.917 6.4998 22.688 34.688-9.0951 10.909-26.144 16.003-41.344 16.562-5.611 0.20656-10.888-0.2833-15.5-1.25-0.20469-0.0248-0.42018-0.0673-0.625-0.0937-13.114-1.6939-26.418-6.7618-34.094-15.969-13.229-28.188 18.876-15.173 22.656-34.688 3.7201-19.207-17.964-20.525-18.656-20.562h-98.188z"/>
<path stroke-linejoin="round" d="m108.62 112.47v99.156c-0.2722 3.1296-2.5349 21.218-20.438 17.75-19.515-3.7798-6.4998-35.886-34.688-22.656-9.207 7.6759-14.275 20.979-15.969 34.094-0.02646 0.20482-0.06894 0.42031-0.09375 0.625-0.9667 4.612-1.4566 9.889-1.25 15.5 0.55954 15.199 5.6533 32.249 16.562 41.344 28.188 13.229 15.173-18.908 34.688-22.688 19.515-3.7798 20.594 18.906 20.594 18.906l0.59375 97.719h101.59c6.2012 1.2183 18.241 5.4891 15.406 20.125-3.7798 19.515-35.886 6.4998-22.656 34.688 7.6759 9.207 20.979 14.275 34.094 15.969 0.20482 0.0265 0.42031 0.0689 0.625 0.0937 4.612 0.96671 9.889 1.4566 15.5 1.25 15.199-0.55953 32.249-5.6533 41.344-16.562 13.229-28.188-18.908-15.173-22.688-34.688-3.75-19.51 18.94-20.59 18.94-20.59l97.188-0.28125s-0.62501-98.25-0.625-98.25c0 0-1.0792-22.686-20.594-18.906-19.515 3.7798-6.4998 35.917-34.688 22.688-10.909-9.0951-16.003-26.144-16.562-41.344-0.20656-5.611 0.28329-10.888 1.25-15.5 0.0248-0.20469 0.0673-0.42019 0.0937-0.625 1.6939-13.114 6.7618-26.418 15.969-34.094 5.2852-2.4805 9.1258-3.3791 12-3.1562 12.455 0.96571 6.8319 22.741 22.688 25.812 18.208 3.5267 20.261-15.34 20.469-17.969v-98.406l-97.344 0.71875s-22.686 1.0792-18.906 20.594c3.7798 19.515 35.917 6.4998 22.688 34.688-9.0951 10.909-26.144 16.003-41.344 16.562-5.611 0.20656-10.888-0.2833-15.5-1.25-0.20469-0.0248-0.42018-0.0673-0.625-0.0937-13.114-1.6939-26.418-6.7618-34.094-15.969-13.229-28.188 18.876-15.173 22.656-34.688 3.7201-19.207-17.964-20.525-18.656-20.562h-98.188z" stroke-width="12.5"/>
</g>
</g>
</g>
</svg>
