<svg xmlns="http://www.w3.org/2000/svg" height="70.098" width="74.38" viewBox="0 0 74.380089 70.097618"><g opacity=".86" stroke="#d9d9d9" fill="#fff"><path stroke-width="3.824" d="M126.59 127.79v99.156c-.272 3.13-2.535 21.218-20.438 17.75-19.515-3.78-6.5-35.886-34.688-22.656-9.207 7.676-14.275 20.98-15.97 34.094-.025.205-.068.42-.093.625-.965 4.61-1.455 9.888-1.25 15.5.56 15.198 5.655 32.248 16.563 41.343 28.188 13.23 15.173-18.908 34.688-22.688 19.516-3.78 20.595 18.906 20.595 18.906l.594 97.72h101.59c6.2 1.218 18.24 5.49 15.405 20.125-3.78 19.515-35.886 6.5-22.656 34.688 7.675 9.207 20.978 14.275 34.093 15.97.205.026.42.068.625.093 4.612.966 9.89 1.456 15.5 1.25 15.2-.56 32.25-5.654 41.344-16.562 13.23-28.188-18.908-15.173-22.688-34.688-3.78-19.515 18.906-20.594 18.906-20.594l97.188-.282-.625-98.25s-1.08-22.686-20.594-18.906c-19.516 3.78-6.5 35.917-34.69 22.688-10.908-9.095-16.002-26.144-16.56-41.344-.208-5.61.282-10.888 1.25-15.5.024-.204.066-.42.093-.625 1.694-13.114 6.762-26.418 15.97-34.094 5.284-2.48 9.125-3.38 12-3.157 12.454.966 6.83 22.74 22.687 25.812 18.208 3.527 20.26-15.34 20.47-17.97V127.79l-97.345.72s-22.686 1.078-18.906 20.593c3.78 19.515 35.916 6.5 22.687 34.688-9.095 10.91-26.144 16.004-41.344 16.563-5.61.207-10.888-.283-15.5-1.25-.205-.025-.42-.067-.625-.094-13.114-1.695-26.418-6.762-34.094-15.97-13.23-28.188 18.876-15.173 22.656-34.688 3.72-19.207-17.964-20.525-18.656-20.562h-98.188z" transform="matrix(.17507 -.04773 .04916 .16998 -17.12 .51)"/><path stroke-linejoin="round" d="M108.62 112.47v99.156c-.272 3.13-2.535 21.218-20.438 17.75-19.515-3.78-6.5-35.886-34.688-22.656-9.207 7.676-14.275 20.98-15.97 34.094-.025.205-.068.42-.093.625-.965 4.61-1.455 9.888-1.25 15.5.56 15.198 5.655 32.248 16.563 41.343 28.188 13.23 15.173-18.908 34.688-22.688 19.516-3.78 20.595 18.906 20.595 18.906l.594 97.72h101.59c6.2 1.218 18.24 5.49 15.405 20.125-3.78 19.515-35.886 6.5-22.656 34.688 7.675 9.207 20.978 14.275 34.093 15.97.205.025.42.068.625.093 4.612.966 9.89 1.456 15.5 1.25 15.2-.56 32.25-5.654 41.344-16.562 13.23-28.188-18.908-15.173-22.688-34.688-3.75-19.51 18.94-20.59 18.94-20.59l97.188-.282-.625-98.25s-1.08-22.686-20.594-18.906c-19.515 3.78-6.5 35.917-34.688 22.688-10.91-9.095-16.003-26.144-16.562-41.344-.207-5.61.283-10.888 1.25-15.5.025-.204.067-.42.094-.625 1.694-13.114 6.762-26.418 15.97-34.094 5.284-2.48 9.124-3.38 12-3.156 12.454.966 6.83 22.74 22.687 25.812 18.208 3.526 20.26-15.34 20.47-17.97v-98.406l-97.345.72s-22.687 1.078-18.907 20.593c3.78 19.515 35.917 6.5 22.688 34.688-9.094 10.91-26.143 16.003-41.343 16.562-5.61.207-10.888-.283-15.5-1.25-.205-.025-.42-.067-.625-.094-13.114-1.694-26.418-6.762-34.094-15.97-13.23-28.187 18.876-15.172 22.656-34.687 3.72-19.207-17.964-20.525-18.656-20.562H108.65z" stroke-width="12.5" transform="matrix(.17507 -.04773 .04916 .16998 -17.12 .51)"/></g></svg>