<svg xmlns="http://www.w3.org/2000/svg" viewBox="0 0 66.666664 100"><path d="M0 50.005c.005 0 .005-.005.01-.005-.005 0-.005-.005-.01-.005v.01zM45.252 71.27c-4.204-4.86-8.466-9.39-12.795-13.58-2.99-2.89-5.87-5.438-8.648-7.69 2.776-2.252 5.657-4.8 8.647-7.69 4.33-4.19 8.59-8.715 12.795-13.58 4.2-4.868 8.172-9.792 11.92-14.782C60.913 8.958 64.08 4.31 66.666 0h-19.21c-2.58 4.31-5.562 8.714-8.943 13.21A199.257 199.257 0 0 1 27.91 26.143c-3.69 4.124-7.44 7.91-11.248 11.362C13.39 40.467 4.614 46.78.01 50c4.604 3.22 13.38 9.533 16.652 12.495 3.81 3.448 7.557 7.238 11.247 11.367a198.26 198.26 0 0 1 10.604 12.933c3.38 4.49 6.362 8.895 8.943 13.205h19.21c-2.586-4.31-5.753-8.962-9.496-13.948a279.64 279.64 0 0 0-11.918-14.78z" fill="#333"/></svg>