<svg xmlns="http://www.w3.org/2000/svg" viewBox="0 0 100 100"><g fill="#555753"><path d="M50 2.538c-9.827 0-18.99 2.722-26.725 7.39L12.82.006V27.81h29.29L30.485 16.773A41.356 41.356 0 0 1 50 11.905c22.13 0 40.134 17.09 40.134 38.1 0 5.004-1.05 9.776-2.908 14.157l8.615 4.767A45.086 45.086 0 0 0 100 50.004c0-26.173-22.43-47.467-50-47.467zM69.504 83.224a41.32 41.32 0 0 1-19.502 4.88c-22.13 0-40.133-17.092-40.133-38.1 0-4.727.952-9.233 2.616-13.412l-8.602-4.92A45.13 45.13 0 0 0 0 50.004C0 76.178 22.43 97.47 50 97.47c9.83 0 18.972-2.734 26.712-7.403l10.47 9.94v-27.81H57.887l11.616 11.027z"/></g></svg>