<svg xmlns="http://www.w3.org/2000/svg" viewBox="0 0 99.999999 84.858044" version="1"><path fill="#f57900" d="M9.62 0C4.23 0 0 4.23 0 9.62v65.617c0 5.39 4.23 9.62 9.62 9.62h80.76c5.39 0 9.62-4.23 9.62-9.62V9.62C100 4.23 95.77 0 90.38 0H9.62z"/><path fill="#ce5c00" d="M17.43 5.994a2.873 2.873 0 0 0-2.366 2.84v11.12a2.873 2.873 0 0 0 2.76 2.838c27.768.833 50.168 24.253 50.867 53.312a2.873 2.873 0 0 0 2.84 2.76H82.1a2.873 2.873 0 0 0 2.84-2.918c-.704-35.028-25.57-63.98-58.045-69.24-2.966-.482-5.945-.635-8.91-.71a2.873 2.873 0 0 0-.553 0zm0 23.66a2.873 2.873 0 0 0-2.366 2.838v10.726a2.873 2.873 0 0 0 2.682 2.84c15.507.758 27.957 13.774 28.628 30.045a2.873 2.873 0 0 0 2.84 2.682h10.172a2.873 2.873 0 0 0 2.84-2.918c-.72-23.188-17.21-42.322-38.802-45.82-1.9-.307-3.73-.327-5.44-.394a2.873 2.873 0 0 0-.553 0zm8.202 27.128c-5.882-.016-10.568 4.957-10.568 10.963 0 6.004 4.703 10.945 10.568 10.962 5.882.016 10.647-4.923 10.647-10.962 0-5.673-4.16-10.378-9.544-10.963-.688-.074-.893 0-1.104 0z"/><path fill="#eeeeec" d="M17.882 8.86v11.09c29.332.88 52.936 25.54 53.67 56.042l10.527.03C81.402 42.317 57.482 14.57 26.42 9.54c-2.784-.453-5.648-.61-8.54-.683zm0 23.602v10.734c17.026.834 30.612 15.063 31.34 32.737l10.172.03c-.68-21.876-16.225-39.814-36.414-43.084-1.665-.27-3.38-.35-5.1-.417zm7.77 27.132c-4.272-.012-7.77 3.574-7.77 8.124s3.494 8.143 7.77 8.155c4.27.01 7.768-3.574 7.768-8.125 0-4.268-3.08-7.732-6.97-8.154-.187-.02-.464 0-.8 0z"/></svg>