<svg xmlns="http://www.w3.org/2000/svg" viewBox="0 0 100 100"><defs><linearGradient id="b" y2="700.21" gradientUnits="userSpaceOnUse" y1="601.65" gradientTransform="matrix(4.772 0 0 4.772 896.756 -2714.75)" x2="-144.29" x1="-113.21"><stop stop-color="#FFF" offset="0"/><stop stop-color="#d2d5d8" offset="1"/></linearGradient><filter id="a" color-interpolation-filters="sRGB"><feGaussianBlur stdDeviation="3.225"/></filter></defs><g transform="matrix(.1947 0 0 .1947 -22.07 -12.292)" color="#000"><rect ry="12.857" transform="matrix(4.772 0 0 4.772 896.756 -2714.75)" height="92.143" filter="url(#a)" width="92.143" y="589.86" x="-156.43" enable-background="accumulate"/><rect ry="61.354" height="439.7" width="439.7" stroke="#ccc" y="83.021" x="136.65" stroke-width="10.098" fill="url(#b)" enable-background="accumulate"/><path style="block-progression:tb;text-indent:0;text-align:start;text-transform:none" d="M254.94 194.09c-43.273 43.273-43.378 114.16-.105 157.43 36.663 36.663 93.2 42.25 135.92 16.766L467.1 442.52c10.506 10.2 27.084 9.823 37.116-.843 10.033-10.665 9.77-27.447-.74-37.645l-75.183-72.864c26.36-42.847 21.008-100.04-16.028-137.08-43.273-43.273-114.05-43.273-157.33 0zm31.74 31.74c26.102-26.102 67.746-26.102 93.848 0s26.102 67.746 0 93.848-67.746 26.102-93.848 0-26.102-67.746 0-93.848z" fill="#454040" enable-background="accumulate"/></g></svg>