<svg xmlns="http://www.w3.org/2000/svg" viewBox="0 0 134.544 127.644"><defs><linearGradient id="a" y2="63.737" gradientUnits="userSpaceOnUse" y1="63.737" x2="133.89" x1="7.052"><stop stop-color="#EAEAEA" offset="0"/><stop stop-color="#E1E1E1" offset=".198"/><stop stop-color="#C9C8C8" offset=".523"/><stop stop-color="#A1A0A0" offset=".931"/><stop stop-color="#9A9999" offset="1"/></linearGradient><linearGradient id="b" y2="455.83" gradientUnits="userSpaceOnUse" y1="455.83" gradientTransform="scale(299.3353) rotate(134.93 -211.987 -179.004)" x2="-233.92" x1="-235.55"><stop stop-color="#FFF" offset="0"/><stop offset="1"/></linearGradient><linearGradient id="c" y2="455.6" gradientUnits="userSpaceOnUse" y1="455.6" gradientTransform="scale(299.3353) rotate(134.93 -211.987 -179.004)" x2="-233.78" x1="-235.61"><stop stop-color="#C6C6C6" offset="0"/><stop offset="1"/></linearGradient><linearGradient id="d" y2="455.82" gradientUnits="userSpaceOnUse" y1="455.82" gradientTransform="scale(299.3353) rotate(134.93 -211.987 -179.004)" x2="-233.93" x1="-235.54"><stop stop-color="#C6C6C6" offset="0"/><stop offset="1"/></linearGradient></defs><path fill="url(#a)" d="M109.08 81.232c-9.452-9.44-21.3-15.81-31.94-23.73-5.87-4.37-15.308-10.284-16.67-18.152-.85-4.896 1.59-9.764.885-14.94a27.317 27.317 0 0 0-6.55-14.315c-7.61-8.64-20.183-11.606-30.85-7.224L35.364 14.28c5.395 5.396 4.612 9.253-.65 14.5-4.896 4.88-8.723 4.604-13.444-.112L9.46 16.87c-4.667 10.253-2.405 22.597 5.547 30.546a27.392 27.392 0 0 0 13.8 7.438c2.498.51 5.07.67 7.615.47 2.71-.212 6.506-2.25 8.98-1.573 8.633 2.36 14.463 10.678 19.333 17.693 7.66 11.027 12.91 23.254 22.64 32.767 8.007 7.83 16.845 15.99 27.105 20.8 7.81 3.66 13.9.88 18.28-6.73 2.51-4.35.41-8.42-2.1-12.33-5.88-9.16-13.93-17.063-21.58-24.718m-3.15 22.168c-4.84 0-4.83-7.514 0-7.514 4.84.034 4.86 7.514 0 7.514"/><path fill="url(#b)" d="M72.698 52.866l-1.188 1.188c3.334 2.845 5.444 2.622 9.313 5.35-.28.297-.563.595-.845.89 14.662 9.59 27.492 19.62 39.222 32.692 4.78 5.243 10.2 10.934 13.05 17.544 2.12 4.92-.38 8.21-3.89 11.8-8.46 8.64-19.68-1.03-27.11-6.9-14.178-11.2-26.268-25.02-34.527-41.176l-1.02 1.074c-2.015-4.167-2.272-7.27-4.97-10.5-2.11 2.103 2.566 6.315 3.904 8.964 2.3 4.554 5.04 8.8 7.85 13.055 6.596 9.993 14.206 18.423 23.3 26.213 6.213 5.32 13.093 10.9 20.863 13.77 6.67 2.46 11.46-.96 15.52-6.17 7.61-9.77-4.98-21.306-11.19-28.184-6.52-7.217-13.28-14.38-20.97-20.365-8.78-6.826-18.93-11.962-27.312-19.244M34.198 0c-1.117 0-12.8 1.62-10.827 3.456.073.804 2.795 2.797 3.338 3.34 3.387 3.393 7.798 6.723 10.604 10.615 4.395 4.397-2.842 12.46-7.247 14.24-5.052 2.037-10.382-5.743-13.376-8.74-.645-.644-7.124-8.213-7.987-6.39-4.167 9.165-3.038 20.09 2.91 28.2 5.265 7.176 13.79 11.52 22.694 11.52 4.303 0 8.532-2.432 12.553-1.15 3.928 1.25 6.672 4.058 9.363 7.073 3.517-3.518-8.538-8.648-11.637-9.495-1.723-.442-5.826 1.604-7.795 1.792a26.473 26.473 0 0 1-11.522-1.472C11.355 47.918 4.376 32.118 9.826 18.4c3.97 3.974 7.942 7.945 11.914 11.917 5.405 5.404 9.86 2.75 14.476-1.867 2.335-2.335 4.793-4.618 4.255-8.286-1.566-2.223-3.312-4.088-5.227-6.003-3.593-3.59-7.186-7.183-10.78-10.776.958.367 1.846.86 2.664 1.48L25.53 3.268C39.057-1.546 54.25 5.573 59.17 19.09c2.454 6.74.118 11.734.144 18.327.494 3.318 5.677 15.986 9.543 12.12-3.694-3.25-6.907-6.005-7.69-11.014-.43-2.755.93-5.36 1.172-8.153a27.767 27.767 0 0 0-1.343-11.125C57.187 7.825 46.21 0 34.197 0"/><path fill="#e5e5e5" d="M11.88 21.244c-.222-.88-.78-1.39-1.676-1.53C7.8 26.5 8.76 34.25 12.494 40.374c-2.993-6.04-3.266-12.957-.613-19.13m48.25 6.36c.01-7.885-3.867-15.38-10.193-20.057A25.83 25.83 0 0 0 40.13 3.1c-1.623-.356-13.427-1.41-13.404.843.036 3.46 8.174 2.006 9.697 2.122A24.784 24.784 0 0 1 49.82 11.26c8.74 6.87 11.666 19.118 6.708 29.13 2.335-3.845 3.618-8.284 3.603-12.787"/><path fill="#e5e5e5" d="M38.564 31.626c1.52-1.52 3.918-3.793 4.3-6.057.646-3.793-5.04 1.242-5.32 1.584-1.737 2.13-3.398 4.283-5.642 5.915-.506.368-3.112 1.375-3.31 2.02-.243.805 2.545.735 2.76.71 2.808-.337 5.28-2.24 7.212-4.174"/><path fill="url(#c)" d="M24.464 3.383c5.396 5.394 11.6 10.534 16.007 16.78-.48-3.237-3.595-5.55-5.764-7.72-2.953-2.953-6.207-7.61-10.242-9.06"/><path fill="#b2b2b2" d="M42.396 24.593c.1.524.195 1.046.293 1.57.356-.72.257-1.242-.294-1.57"/><path fill="#e5e5e5" d="M26.256 35.833c-1.023 1.025-17.446-15.347-16.398-16.4.362-.362 16.752 16.047 16.398 16.4M131.96 114.9c3.62-3.64-34.908-37.813-38.923-41.09-9.73-7.947-20.975-13.86-29.757-23.015-1.597-1.665-3.312-3.513-4.23-5.664-.024-.058-.445-1.815-.222-1.7.173.09-.377.694-.418.735-.255.26 8.754 8.28 9.283 8.685 10.813 8.242 22.997 14.23 33.537 22.948 8.87 7.343 17.26 15.537 24.24 24.722 1.53 2.02 9.45 11.42 6.49 14.38"/><path fill="#9a9a9a" d="M99.574 88.352c-1.573 0-3.07.258-4.547.798 4.688 0 8.163-.436 12.243 2.703 2.82 2.172 4.73 5.21 6.45 8.277.43.79 2.7 6.7 3.82 6.7 2.61 0-3.36-10.186-3.79-10.702-3.57-4.272-8.39-7.776-14.176-7.776"/><path fill="#e5e5e5" d="M104.4 107.66c2.23 1.54 4.88 2.21 7.55 2.33.59.02 5.01-.58 5.31.13 1.96 4.67-11.76 1.4-12.76.82-6.157-3.51-11.054-10.34-11.105-17.59-.03-3.91 1.366-6.36 1.87-.955.6 6.462 3.805 11.565 9.135 15.265"/><path fill="#d82a2a" d="M56.106 65.645C64.92 74.43 43.356 92.957 38.54 97.85c-7.438 7.56-15.314 15.93-24.656 21.18-3.08 1.74-7.064 3.34-10.242.96-10.102-7.56 8.55-24.703 13.17-29.574 8.06-8.503 16.708-17.64 26.902-23.634 3.507-2.063 8.913-4.63 12.392-1.137"/><path fill="#b20d0d" d="M56.106 65.645l-1.663-1.18c6.218 9.162-13.687 26.112-18.56 31.056-7.217 7.33-14.75 15.17-23.602 20.56-2.923 1.78-7.022 3.94-10.416 2.1 7.942 11.46 28.348-12.07 32.98-16.63 5.05-4.977 30.806-26.395 21.262-35.905"/><path fill="#ef5656" d="M50.06 68.252c1.19 1.19-19.44 19.272-20.656 20.475C22.778 95.29 16.288 102 10.09 108.97c-.54.6-3.333 4.71-4.513 4.13-5.282-2.56 12.2-19.62 13.334-20.8 2.265-2.36 25.947-29.257 31.15-24.048"/><path fill="#970f00" d="M21.607 84.615C17.42 88.803-11.748 116.19 5.3 121.54c6.423 2.02 14.41-5.49 18.82-9.24 8.53-7.25 16.578-15.298 23.93-23.74 4.322-4.96 15.408-16.415 8.496-23.352-9.243-9.242-29.807 14.276-34.94 19.407M3.074 118.68c-5.303-5.25 2.725-14.55 5.958-18.57 7.806-9.69 16.9-18.767 26.494-26.684 4.077-3.363 17.13-14.582 21.506-5.543 1.644 3.397-.833 7.57-2.603 10.368-6.237 9.868-15.167 18.313-23.56 26.3-4.576 4.36-20.056 21.9-27.794 14.13"/><path fill="#c6c6c6" d="M112.7 9.215c5.44 5.44-1.74 9.104-5.59 12.96-3.62 3.63-8.277 4.548-12.034 8.31l-12.69 12.693a133258.843 133258.843 0 0 1-25.024 25.02c-.674.674-1.538.74-2.424.406-3.403-1.283-.995-4.162.5-5.655 9.582-9.578 19.165-19.155 28.745-28.735l7.026-7.025c1.444-1.444 3.573-2.957 4.413-4.863.812-1.843.643-4.465 2.143-5.967 4.304-4.302 8.814-13.145 14.934-7.145"/><path fill="#FFF" d="M94.426 26.61c.503.504-38.888 39.94-39.413 39.415-.238-.238 38.48-40.256 39.413-39.414"/><path fill="#9a9a9a" d="M98.73 26.61c-6.408 1.64-42.163 42.754-42.9 42.023 5.496-1.883 42.01-42.91 42.9-42.022"/><path fill="#e5e5e5" d="M112.61 13.094c0 4.24-13.416 13.16-13.416 5.804 0-.594 5.556-1.447 6.936-2.33.5-.322 6.48-4.21 6.48-3.474"/><path fill="#9a9a9a" d="M108.61 7.11c-1.54 0-10.286 9.53-10.174 9.644 1.015 1.012 9.114-9.645 10.174-9.645"/><path fill="#DDD" d="M108.06 7.95c.31-.316 3.72 4.755 4.41 4.755.12-2.107-2.15-4.748-4.41-4.755"/><path fill="#9a9a9a" d="M73.073 59.4l-6.067 6.072c-3.913 3.916-2.947 3.583-.285 8.78 3.62-3.812 7.24-7.623 10.86-11.437a187 187 0 0 1-4.507-3.414m2.28-2.283l-.608.61c1.603 1.017 3.226 2 4.867 2.953l.365-.386a105.047 105.047 0 0 1-4.623-3.177"/><path fill="url(#d)" d="M63.712 68.77c-1.454 1.672 1.062 4.64 1.99 6.558 2.213-1.388-.99-5.03-1.99-6.558m12.56-12.574c-.307.307-.61.614-.918.92 1.72 1.265 3.743 3.76 5.468 2.29l-4.55-3.21"/><path fill="#b2b2b2" d="M74.745 57.726c-.633.362-1.153 1.155-1.672 1.676 2.27 1.775 4.613 5.014 6.54 1.278a144.827 144.827 0 0 1-4.868-2.954"/></svg>