<svg xmlns="http://www.w3.org/2000/svg" height="90.035" width="94.529"><defs><radialGradient id="a" gradientUnits="userSpaceOnUse" cy="42.721" cx="44.7" gradientTransform="scale(1.0225 .97802)" r="12.239"><stop stop-color="#FFF" offset="0"/><stop stop-color="#FFF" stop-opacity="0" offset="1"/></radialGradient></defs><g fill-rule="evenodd"><g fill-opacity=".981" fill="#fb0"><path d="M64.3 43.39c0 11.246-9.312 20.373-20.784 20.373S22.734 54.636 22.734 43.39s9.31-20.372 20.782-20.372S64.3 32.145 64.3 43.39zM41.142 11.898c-1.63 3.452 2.325 8.67 5.42 4.753 1.192-3.41.345-7.148.748-10.694.79-3.1-.442-5.587-3.88-5.956-1.99.39-1.724 7.858-2.288 11.898zM18.964 5.364a3.016 3.016 0 0 0-2.678 1.798 2.91 2.91 0 0 0 .537 3.138s2.45 2.713 10.072 11.203c.694.85 1.81 1.256 2.9 1.058a3 3 0 0 0 2.324-2.003 2.916 2.916 0 0 0-.702-2.956c-7.62-8.486-10.04-11.2-10.04-11.2-.6-.69-1.49-1.07-2.414-1.036zM4.22 20.587c-.313 1.094-.747 2.9 1.057 3.595 4.15 2.767 8.96 3.98 14.045 6.04 1.956.767 4.21-1.007 3.993-3.03-.092-1.92-2.154-2.716-3.732-3.254-3.962-1.616-8.02-2.995-12.063-4.403-1.196-.12-2.325.437-3.3 1.052zM.088 42.6c.13 1.378-.6 2.967.71 3.774 2.745.897 9.27.865 14.203.914 2.392-.185 3.557-3.508 1.714-5.053-1.418-1.32-3.48-.727-5.228-.912-2.05-.045-11.84-.375-11.398 1.278zM18.723 52.57c-.474.01-.94.133-1.357.354-5.704 2.88-8.627 4.323-10.1 5.025-.69.326-1.015.46-1.177.53-.013.006-.082.027-.092.03-1.417.458-2.28 1.86-2.03 3.302.248 1.442 1.534 2.49 3.025 2.463 0 0 .396-.01.513-.03.116-.02.207-.042.27-.06.13-.033.205-.064.273-.088.133-.047.22-.087.36-.147.28-.12.7-.31 1.478-.68 1.556-.74 4.526-2.193 10.252-5.084 1.284-.608 1.958-2.015 1.616-3.372s-1.608-2.293-3.033-2.244zM27.347 63.772a3.046 3.046 0 0 0-2.05.887c-5.184 5.08-7.8 7.55-9.047 8.69-.485.444-.6.547-.723.65l-.03.03a2.947 2.947 0 0 0-1.478 2.57l.12.888.693 1.123 1.176.77 1.024.177s.472-.026.634-.06c.16-.033.26-.082.362-.118a2.94 2.94 0 0 0 .422-.178c.388-.203.458-.27.603-.384.29-.228.65-.535 1.327-1.153 1.35-1.236 3.96-3.704 9.166-8.81.9-.848 1.174-2.155.685-3.283-.488-1.13-1.636-1.844-2.886-1.8zM44.626 67.497c-.8.03-1.555.372-2.098.95a2.92 2.92 0 0 0-.797 2.124c.126 5.018-1.023 11.08.53 13.143 1.792.78 2.818.69 2.818.69l2.418-.838c.597-1.95.612-5.07.266-13.142a2.932 2.932 0 0 0-.937-2.114 3.05 3.05 0 0 0-2.2-.813zM60.004 65.457a3.024 3.024 0 0 0-2.688 1.535c-.538.96-.49 2.132.125 3.047 3.155 4.808 4.914 7.187 6.032 8.482.56.648.938 1.024 1.447 1.39a3.19 3.19 0 0 0 1.055.532c.26.078.597.157.995.147.198-.004.414-.036.633-.087.22-.052.633-.237.633-.237a2.954 2.954 0 0 0 1.702-2.594 2.946 2.946 0 0 0-1.58-2.667c-.024-.024 0-.01-.273-.325-.786-.912-2.497-3.135-5.578-7.834a3.03 3.03 0 0 0-2.503-1.39zM69.292 54.284c-1.33.15-2.4 1.137-2.63 2.43a2.942 2.942 0 0 0 1.634 3.157c3.49 1.766 7.812 5.215 10.705 4.66 2.395-.454 2.6-2.078 2.408-3.702-.398-1.56-1.788-2.346-10.337-6.22a3.068 3.068 0 0 0-1.778-.324zM85.575 39.298c-.33.007-.656.067-.965.177-.19.018-.38.03-1.056.06-1.814.08-5.58.147-13.177.147a3.028 3.028 0 0 0-2.647 1.466c-.548.92-.548 2.06 0 2.98s1.56 1.48 2.647 1.466c7.643 0 11.453-.09 13.45-.178.997-.044 1.543-.062 1.96-.118.207-.028.346-.04.692-.148.172-.054.398-.106.814-.384.104-.07.232-.18.36-.296.13-.117.423-.443.424-.443l.36-.74c.002 0 .182-.974.182-.974.017-.8-.298-1.57-.872-2.14s-1.358-.883-2.173-.875zM84.586 23.714c-3.183 0-3.184-.19-14.6 2.814a2.99 2.99 0 0 0-2.283 2.038 2.912 2.912 0 0 0 .74 2.937 3.06 3.06 0 0 0 2.99.76c5.22-1.248 13.7-2.75 14.003-4.54 1.507-1.532.23-2.673-.85-4.01zM69.605 6.37c-1.79.974-3.973 2.938-9.752 11.26a2.93 2.93 0 0 0 .92 4.095c1.407.88 3.277.478 4.176-.902 2.948-4.524 7.448-9.762 7.827-11.627-.262-1.527-1.717-2.665-3.172-2.827z"/></g><path fill="url(#a)" d="M58.218 41.782c0 6.607-5.606 11.97-12.514 11.97S33.19 48.39 33.19 41.782c0-6.608 5.606-11.97 12.514-11.97s12.514 5.362 12.514 11.97z" transform="translate(-6.387 -4.264)"/></g></svg>