<svg xmlns:rdf="http://www.w3.org/1999/02/22-rdf-syntax-ns#" xmlns="http://www.w3.org/2000/svg" height="129.84" width="90.681" version="1.1" xmlns:cc="http://creativecommons.org/ns#" xmlns:dc="http://purl.org/dc/elements/1.1/" viewBox="0 0 90.681 129.84329">
<path fill-rule="evenodd" d="m26.37 34.581-0.001-32.484a35 35 0 0 0 -25.995 30.832l0.000053-0.000011a100 100 0 0 0 42.329 90.601l0.000098 0.00003a35 35 0 0 0 40.328 -0.16l-24.915-20.84-3.3974 1.5873a10 10 0 0 1 -13.293 -4.827l-23.281-49.83a10 10 0 0 1 4.827 -13.293l3.398-1.589zm5 1.8426v-36.423l10 4.6721v27.079l-10 4.6721zm28.542 61.09 27.937 23.371 2.8329-10.668-20.77-17.375-10 4.6721z"/>
</svg>
