<svg xmlns="http://www.w3.org/2000/svg" viewBox="0 0 128 128" xmlns:xlink="http://www.w3.org/1999/xlink"><defs><linearGradient id="a"><stop stop-color="#999" stop-opacity="0" offset="0"/><stop stop-color="#e6e6e6" offset=".507"/><stop stop-color="#999" stop-opacity="0" offset="1"/></linearGradient><linearGradient id="b" y2="127.34" xlink:href="#a" gradientUnits="userSpaceOnUse" x2="260.11" gradientTransform="matrix(.45813 0 0 .4575 .675 926.27)" y1="127.34" x1="19.107"/><linearGradient id="c" y2="127.34" xlink:href="#a" gradientUnits="userSpaceOnUse" x2="260.11" gradientTransform="matrix(-.22907 .39622 -.39675 -.22876 160.44 982.35)" y1="121.4" x1="2.398"/><linearGradient id="d" y2="127.34" xlink:href="#a" gradientUnits="userSpaceOnUse" x2="260.11" gradientTransform="matrix(.22907 .39622 .39675 -.22876 -31.745 985.75)" y1="127.34" x1="19.107"/><linearGradient id="e" y2="-4.22" gradientUnits="userSpaceOnUse" x2="112.5" gradientTransform="matrix(.45813 0 0 .4575 .675 926.27)" y1="275.41" x1="112.5"><stop stop-color="#986601" offset="0"/><stop stop-color="#fdca01" offset=".331"/><stop stop-color="#ff9" offset="1"/></linearGradient><linearGradient id="f" y2="91.242" gradientUnits="userSpaceOnUse" x2="63.993" y1="8.852" x1="63.993"><stop stop-color="#eee" offset="0"/><stop stop-color="#eee" stop-opacity="0" offset="1"/></linearGradient></defs><g color="#000"><path opacity=".03" style="block-progression:tb;text-transform:none;text-indent:0" d="M12.562 107.64h106.56l-53.28-92.125L12.56 107.64z"/><path opacity=".03" style="block-progression:tb;text-transform:none;text-indent:0" d="M12.03 107.94h107.62L65.84 14.846C47.9 45.876 29.963 76.908 12.026 107.94z"/><path opacity=".03" style="block-progression:tb;text-transform:none;text-indent:0" d="M65.78 14.3c-17.866 31.26-36.69 62.84-54.03 93.94 36.09-.084 72.453.167 108.38-.125-18.123-31.228-36.18-62.714-54.344-93.78z"/><path opacity=".03" style="block-progression:tb;text-transform:none;text-indent:0" d="M65.72 13.98c-18.217 31.323-36.517 62.86-54.47 94.28 3.742.686 8.4.01 12.437.25 32.2-.104 64.635.21 96.688-.155-2.018-4.536-5.326-9.25-7.78-13.847-15.607-26.808-31.037-53.972-46.75-80.56-.043.01-.104-.025-.126.03z"/><path opacity=".03" style="block-progression:tb;text-transform:none;text-indent:0" d="M65.625 13.7c-1.898 2.498-3.282 5.615-4.997 8.333-16.534 28.684-33.22 57.338-49.66 86.042.033 1.43 2.386.414 3.326.72 35.335-.022 70.705.04 106.02-.032 1.225-.653-.74-2.314-1.008-3.244-17.684-30.564-35.378-61.222-53.055-91.726-.174-.117-.42-.176-.624-.093z"/><path opacity=".03" style="block-progression:tb;text-transform:none;text-indent:0" d="M65.594 13.3c-.85.264-1.046 1.353-1.557 2.027l-53.38 92.348c-.383.72.175 1.58.975 1.53h108.52c.892-.02 1.267-1.087.725-1.79L66.715 13.8c-.14-.394-.7-.634-1.125-.5z"/><path opacity=".03" style="block-progression:tb;text-transform:none;text-indent:0" d="M65.562 13.08c-1.59.85-1.906 3.13-3.033 4.49-17.384 30.12-34.866 60.22-52.186 90.354-.267 1.59 1.857 1.73 2.987 1.5 35.678-.02 71.39.042 107.04-.03 1.5-.394.954-2.254.063-3.112C102.487 75.31 84.61 44.242 66.62 13.33c-.298-.196-.695-.367-1.062-.25z"/><path opacity=".03" style="block-progression:tb;text-transform:none;text-indent:0" d="M65.438 12.83c-2.666 1.857-3.376 5.933-5.44 8.48C43.4 50.217 26.425 78.993 10.063 107.985c.037 3.005 4.46 1.296 6.268 1.72 34.807-.106 69.69.208 104.45-.157 2.485-1.846-1.47-4.78-2.016-6.8-17.364-29.874-34.53-59.954-52.015-89.7-.362-.24-.898-.384-1.31-.22z"/><path opacity=".03" style="block-progression:tb;text-transform:none;text-indent:0" d="M65.28 12.55c-4.24 4.507-6.418 11.252-10.038 16.428-15.095 26.42-30.8 52.674-45.523 79.197.972 3.988 7.09.86 9.912 1.844 33.767-.172 67.712.338 101.37-.25 3.027-2.69-2.758-6.57-3.337-9.482C100.623 71.146 84.04 41.525 66.72 12.675c-.446-.174-.976-.35-1.437-.125z"/><path opacity=".03" style="block-progression:tb;text-transform:none;text-indent:0" d="M65.25 12.26c-4.248 3.62-5.8 10.308-9.257 14.82C40.576 54.14 24.4 80.98 9.438 108.167c.983 4.537 7.95 1.027 11.094 2.125 33.518-.192 67.217.383 100.62-.28 3.392-3.057-2.984-7.38-3.694-10.665-16.91-28.89-33.34-58.31-50.554-86.89-.475-.26-1.14-.4-1.656-.19z"/><path opacity=".03" style="block-progression:tb;text-transform:none;text-indent:0" d="M65.156 11.95c-4.447 3.597-5.908 10.417-9.445 14.977-15.46 27.023-31.44 53.848-46.586 80.99.505 5.182 8.152 1.69 11.406 2.69 33.573-.216 67.308.424 100.78-.314 3.73-3.208-2.747-7.72-3.57-11.103-16.97-28.98-33.338-58.48-50.677-87.07-.585-.297-1.28-.44-1.906-.22z"/></g><path d="M64.585 12.31a.916.915 0 0 0-.744.458L9.553 106.673a.916.915 0 0 0 .787 1.372h108.59a.916.915 0 0 0 .786-1.372l-54.29-93.88a.916.915 0 0 0-.845-.458z" style="block-progression:tb;text-transform:none;text-indent:0" fill="#999" color="#000"/><path d="M65.646 999.77l-56.094 31.257c-.32.55.15 1.368.787 1.373h108.59c.637 0 1.106-.822.787-1.373-54.102-31-54.135-31.27-54.074-31.23z" style="block-progression:tb;text-transform:none;text-indent:0" fill="url(#b)" color="#000" transform="translate(0 -924.36)"/><path d="M65.153 937.65c-.32-.55-1.26-.555-1.584-.005L9.272 1031.56c-.315.554.16 1.368.797 1.368 14.094-12.934 46.15-28.836 55.905-35.232l-.822-60.046z" style="block-progression:tb;text-transform:none;text-indent:0" fill="url(#c)" color="#000" transform="translate(0 -924.36)"/><path d="M63.537 941.04c.32-.55 1.26-.555 1.584-.005l54.297 93.916c.315.554-.16 1.368-.797 1.368.243-.115-53.188-32.813-53.212-32.816l-1.87-62.462z" style="block-progression:tb;text-transform:none;text-indent:0" fill="url(#d)" color="#000" transform="translate(0 -924.36)"/><path d="M16.653 1027.8h95.964c-15.995-27.6-31.986-55.29-47.978-82.94-15.998 27.65-31.994 55.34-47.99 82.94z" style="block-progression:tb;text-transform:none;text-indent:0" fill="url(#e)" color="#000" transform="translate(0 -924.36)"/><path stroke="#333" d="M57.484 49.66l2.863 32.598h7.33L71.57 49.66H57.486zM69.624 91.94c0 3.127-2.538 5.662-5.67 5.662s-5.67-2.535-5.67-5.662 2.54-5.662 5.67-5.662 5.67 2.535 5.67 5.662z"/><path opacity=".5" d="M64.5 12.31a.916.915 0 0 0-.656.437l-54.282 93.89a.916.915 0 0 0 .78 1.375h.75l52.75-91.28a.916.915 0 0 1 .75-.438.916.915 0 0 1 .845.437l52.75 91.282h.75a.916.915 0 0 0 .78-1.375l-54.28-93.89a.916.915 0 0 0-.845-.437.916.915 0 0 0-.093 0z" style="block-progression:tb;text-transform:none;text-indent:0" fill="#eee" color="#000"/><path opacity=".4" d="M9.97 105.94l-.407.687a.916.915 0 0 0 .78 1.375h108.59a.916.915 0 0 0 .782-1.375l-.406-.687a.916.915 0 0 1-.376.062H10.344a.916.915 0 0 1-.375-.062z" style="block-progression:tb;text-transform:none;text-indent:0" fill="#eee" color="#000"/><path d="M64.656 20.5L34.22 73.094c10.343-5.44 23.957-8.72 38.874-8.72 6.23 0 12.24.59 17.875 1.657L64.655 20.5z" style="block-progression:tb;text-transform:none;text-indent:0" fill="url(#f)" color="#000"/></svg>