<svg xmlns:rdf="http://www.w3.org/1999/02/22-rdf-syntax-ns#" xmlns="http://www.w3.org/2000/svg" viewBox="0 0 192.656 194.625" height="100%" width="100%" version="1.1" xmlns:cc="http://creativecommons.org/ns#" xmlns:dc="http://purl.org/dc/elements/1.1/">
<g transform="translate(-375.01 -325.62)">
<path d="m393.29 327.87-16.031 18.914c26.238 21.927 51.682 45.156 75.867 68.977-28.013 28.677-53.837 58.099-75.867 86.484l18.562 15.75c22.962-27.772 48.339-56.15 75.516-83.953 27.177 27.803 52.554 56.181 75.516 83.953l18.562-15.75c-22.03-28.385-47.854-57.808-75.867-86.484 24.185-23.82 49.63-47.05 75.867-68.977l-16.031-18.914c-26.794 21.659-53.115 45.202-78.047 69.609-24.932-24.407-51.253-47.95-78.047-69.609z" stroke="#981100" stroke-linecap="round" stroke-width="4.5" fill="#ff0015"/>
</g>
</svg>
