<svg xmlns="http://www.w3.org/2000/svg" viewBox="0 0 192.656 194.625"><path d="M18.28 2.25L2.25 21.164C28.486 43.09 53.93 66.32 78.115 90.14 50.103 118.82 24.28 148.24 2.25 176.626l18.56 15.75a1365.41 1365.41 0 0 1 75.517-83.953 1365.41 1365.41 0 0 1 75.516 83.953l18.562-15.75c-22.03-28.385-47.854-57.808-75.867-86.484 24.185-23.82 49.63-47.05 75.867-68.976L174.375 2.25c-26.795 21.66-53.116 45.202-78.048 69.61C71.395 47.45 45.074 23.91 18.28 2.25z" stroke="#981100" stroke-linecap="round" stroke-width="4.5" fill="#ff0015"/></svg>